<?xml version="1.0" encoding="UTF-8"?>
<svg width="14" height="15.621" version="1.1" viewBox="0 0 14 15.621" xml:space="preserve" xmlns="http://www.w3.org/2000/svg">
<path d="m2.4408 0c-1.3459 0-2.4408 1.095-2.4408 2.4408v10.74c0 1.3459 1.095 2.4408 2.4408 2.4408h2.0408c0.33702 0 0.61021-0.27319 0.61021-0.61021 0-0.33702-0.27319-0.61021-0.61021-0.61021h-2.0408c-0.67294 0-1.2204-0.54748-1.2204-1.2204v-10.74c0-0.67294 0.54748-1.2204 1.2204-1.2204h7.5022c0.67294 0 1.2204 0.54748 1.2204 1.2204v3.7528c0 0.33702 0.27319 0.61021 0.61021 0.61021 0.33702 0 0.61021-0.27319 0.61021-0.61021v-3.7528c0-1.3459-1.095-2.4408-2.4408-2.4408zm0.60681 3.6612c-0.33702 0-0.61021 0.27319-0.61021 0.61021 0 0.33702 0.27319 0.61021 0.61021 0.61021h6.2851c0.33702 0 0.61021-0.27319 0.61021-0.61021 0-0.33702-0.27319-0.61021-0.61021-0.61021zm0 2.4408c-0.33702 0-0.61021 0.27319-0.61021 0.61021s0.27319 0.61021 0.61021 0.61021h6.2851c0.33702 0 0.61021-0.27319 0.61021-0.61021s-0.27319-0.61021-0.61021-0.61021zm9.1226 2.1975c-0.46872-6.5e-5 -0.93736 0.17829-1.294 0.53494l-3.3501 3.3427c-0.07115 0.071-0.12362 0.15846-0.15285 0.25463l-0.72963 2.4019c-0.06468 0.21296-0.0083 0.44424 0.14713 0.60353 0.11643 0.11933 0.27458 0.18408 0.4368 0.18408 0.05428 0 0.10907-0.0072 0.16286-0.02217l2.4629-0.68225c0.10136-0.02807 0.19377-0.08186 0.26822-0.15619l3.3431-3.3368c0.71376-0.71376 0.71379-1.8751 0-2.5889-0.35688-0.35688-0.82571-0.53536-1.2944-0.53542zm-9.1226 0.24337c-0.33702 0-0.61021 0.27319-0.61021 0.61021 0 0.33702 0.27319 0.61021 0.61021 0.61021h3.8172c0.33702 0 0.61021-0.27319 0.61021-0.61021 0-0.33702-0.27319-0.61021-0.61021-0.61021zm9.1226 0.97663c0.15626 0 0.31254 0.059454 0.4315 0.17841 0.23792 0.23792 0.23791 0.62508 4.17e-4 0.86263l-0.11823 0.11793-0.86299-0.86293 0.11781-0.11763c0.11896-0.11896 0.27524-0.17841 0.4315-0.17841zm-1.4132 1.158 0.86311 0.86311-2.2472 2.2429-1.2391 0.34324 0.36261-1.1938z" stroke-width=".03051"/>
</svg>
