<svg width="24" height="24" viewBox="0 0 24 24" fill="currentColor" xmlns="http://www.w3.org/2000/svg">
    <path
        d="M12 7.5C12.8284 7.5 13.5 6.82843 13.5 6C13.5 5.17157 12.8284 4.5 12 4.5C11.1716 4.5 10.5 5.17157 10.5 6C10.5 6.82843 11.1716 7.5 12 7.5Z"
        fill="currentColor" />
    <path
        d="M12 12.75C12.8284 12.75 13.5 12.0784 13.5 11.25C13.5 10.4216 12.8284 9.75 12 9.75C11.1716 9.75 10.5 10.4216 10.5 11.25C10.5 12.0784 11.1716 12.75 12 12.75Z"
        fill="currentColor" />
    <path
        d="M12 18C12.8284 18 13.5 17.3284 13.5 16.5C13.5 15.6716 12.8284 15 12 15C11.1716 15 10.5 15.6716 10.5 16.5C10.5 17.3284 11.1716 18 12 18Z"
        fill="currentColor" />
</svg>