<svg width="84" height="84" viewBox="0 0 84 84" fill="none" xmlns="http://www.w3.org/2000/svg">
<circle cx="42" cy="42" r="42" fill="currentColor"/>
<g clip-path="url(#clip0_312_2652)">
<path d="M42 37.9805C45.9352 37.9805 49.1367 34.779 49.1367 30.8438C49.1367 26.9085 45.9352 23.707 42 23.707C38.0648 23.707 34.8633 26.9085 34.8633 30.8438C34.8633 34.779 38.0648 37.9805 42 37.9805ZM42 26.168C44.5782 26.168 46.6758 28.2655 46.6758 30.8438C46.6758 33.422 44.5782 35.5195 42 35.5195C39.4218 35.5195 37.3242 33.422 37.3242 30.8438C37.3242 28.2655 39.4218 26.168 42 26.168Z" fill="white"/>
<path d="M56.4375 37.9805C58.9253 37.9805 60.9492 35.9565 60.9492 33.4688C60.9492 30.981 58.9253 28.957 56.4375 28.957C53.9497 28.957 51.9258 30.981 51.9258 33.4688C51.9258 35.9565 53.9497 37.9805 56.4375 37.9805ZM56.4375 31.418C57.5683 31.418 58.4883 32.3379 58.4883 33.4688C58.4883 34.5996 57.5683 35.5195 56.4375 35.5195C55.3067 35.5195 54.3867 34.5996 54.3867 33.4688C54.3867 32.3379 55.3067 31.418 56.4375 31.418Z" fill="white"/>
<path d="M57.4301 40.7695H55.527C53.2843 40.7695 51.3484 42.0945 50.4662 43.9976C48.6499 42.0149 46.0411 40.7695 43.1467 40.7695H40.8534C37.959 40.7695 35.3501 42.0149 33.5339 43.9976C32.6516 42.0945 30.7157 40.7695 28.473 40.7695H26.5699C23.4987 40.7695 21 43.2531 21 46.3058V55.2645C21 56.5898 22.0823 57.668 23.4127 57.668H30.9372C31.0633 59.1363 32.2981 60.293 33.7987 60.293H50.2014C51.7019 60.293 52.9367 59.1363 53.0629 57.668H60.5014C61.8792 57.668 63.0001 56.5515 63.0001 55.1791V46.3058C63 43.2531 60.5013 40.7695 57.4301 40.7695ZM23.4609 46.3058C23.4609 44.6101 24.8556 43.2305 26.5699 43.2305H28.473C30.1873 43.2305 31.582 44.6101 31.582 46.3058V47.1484C30.7546 49.3028 30.9258 50.594 30.9258 55.207H23.4609V46.3058ZM50.6133 57.4202C50.6133 57.6473 50.4285 57.832 50.2014 57.832H33.7986C33.5715 57.832 33.3867 57.6472 33.3867 57.4202V50.6971C33.3867 46.58 36.7362 43.2305 40.8533 43.2305H43.1466C47.2638 43.2305 50.6133 46.58 50.6133 50.697V57.4202ZM60.5391 55.1791C60.5391 55.2216 60.9978 55.207 53.0742 55.207C53.0742 50.5599 53.2441 49.2993 52.418 47.1484V46.3058C52.418 44.6101 53.8127 43.2305 55.527 43.2305H57.4301C59.1444 43.2305 60.5391 44.6101 60.5391 46.3058V55.1791Z" fill="white"/>
<path d="M27.5625 37.9805C30.0503 37.9805 32.0742 35.9565 32.0742 33.4688C32.0742 30.981 30.0503 28.957 27.5625 28.957C25.0747 28.957 23.0508 30.981 23.0508 33.4688C23.0508 35.9565 25.0747 37.9805 27.5625 37.9805ZM27.5625 31.418C28.6933 31.418 29.6133 32.3379 29.6133 33.4688C29.6133 34.5996 28.6933 35.5195 27.5625 35.5195C26.4317 35.5195 25.5117 34.5996 25.5117 33.4688C25.5117 32.3379 26.4317 31.418 27.5625 31.418Z" fill="white"/>
</g>
<defs>
<clipPath id="clip0_312_2652">
<rect width="42" height="42" fill="white" transform="translate(21 21)"/>
</clipPath>
</defs>
</svg>
