<svg width="14" height="20" viewBox="0 0 14 20" fill="none" xmlns="http://www.w3.org/2000/svg">
<path d="M0.25 18.25C0.25 19.0788 0.92125 19.75 1.75 19.75H12.25C13.0787 19.75 13.75 19.0788 13.75 18.25V16H0.25V18.25ZM5.5 17.5H8.5C8.98375 17.5 8.98375 18.25 8.5 18.25H5.5C5.01625 18.25 5.01625 17.5 5.5 17.5Z" fill="currentColor"/>
<path d="M0.25 1.75V15.25H13.75V1.75C13.75 0.92125 13.0787 0.25 12.25 0.25H1.75C0.92125 0.25 0.25 0.92125 0.25 1.75ZM3.54625 5.1025H4.55125V1H9.44875V5.1025H10.4537C11.0162 5.1025 11.3275 5.7775 10.9675 6.20463L7.7725 10.015C7.375 10.4875 6.625 10.4875 6.2275 10.015L3.0325 6.205C2.6725 5.77375 2.9875 5.1025 3.54625 5.1025Z" fill="currentColor"/>
</svg>
