<svg width="24" height="24" viewBox="0 0 24 24" fill="none" xmlns="http://www.w3.org/2000/svg">
<g clip-path="url(#clip0_528_1584)">
<path d="M3.21449 9.42858C3.80622 9.42858 4.28591 8.94889 4.28591 8.35716C4.28591 7.76543 3.80622 7.28574 3.21449 7.28574C2.62276 7.28574 2.14307 7.76543 2.14307 8.35716C2.14307 8.94889 2.62276 9.42858 3.21449 9.42858Z" fill="currentColor"/>
<path d="M3.00009 12.8571C3.71018 12.8571 4.28582 12.2815 4.28582 11.5714C4.28582 10.8613 3.71018 10.2857 3.00009 10.2857C2.29 10.2857 1.71436 10.8613 1.71436 11.5714C1.71436 12.2815 2.29 12.8571 3.00009 12.8571Z" fill="currentColor"/>
<path d="M7.71422 0.857156H12.8571C13.0937 0.857156 13.2856 0.665297 13.2856 0.428578V0H7.28564V0.428578C7.28569 0.66525 7.47755 0.857156 7.71422 0.857156Z" fill="currentColor"/>
<path d="M5.12142 17.9966C5.12916 17.9966 5.13516 18 5.14284 18H15.4286C15.6652 18 15.8572 17.8081 15.8572 17.5714V11.4C15.4071 11.4269 14.9633 11.5191 14.5397 11.6738C14.2063 11.7694 13.8257 11.8783 13.3895 11.9871C12.5863 12.232 11.7254 12.21 10.9359 11.9241C10.372 11.6987 9.94664 11.2217 9.78689 10.6358C9.67022 10.1971 9.738 9.72984 9.97448 9.34237C10.211 8.95491 10.5957 8.68102 11.0392 8.58427C12.0141 8.32608 12.9398 7.90889 13.779 7.34953C14.4 6.90745 15.1087 6.60403 15.8572 6.4598V0.428578C15.8572 0.191906 15.6653 0 15.4286 0H14.1428V0.428578C14.1428 1.13864 13.5672 1.71431 12.8571 1.71431H7.71427C7.0042 1.71431 6.42853 1.13869 6.42853 0.428578V0H5.1428C4.90612 0 4.71422 0.191859 4.71422 0.428578V7.15973C5.04727 7.56792 5.19623 8.09588 5.12564 8.61797C5.05505 9.14006 4.77127 9.60952 4.3418 9.91458C4.84777 10.3156 5.14275 10.9258 5.14275 11.5714C5.14275 12.217 4.84777 12.8273 4.3418 13.2283C4.83192 13.5777 5.12859 14.1378 5.14228 14.7396C5.15597 15.3414 4.88503 15.9144 4.41122 16.2857C4.9538 16.6748 5.22895 17.3377 5.12142 17.9966ZM11.1428 13.7143C11.1428 13.4776 11.3347 13.2857 11.5714 13.2857C11.8081 13.2857 12 13.4775 12 13.7143V15C12 15.2367 11.8081 15.4286 11.5714 15.4286C11.3347 15.4286 11.1428 15.2367 11.1428 15V13.7143ZM11.1428 5.57142C11.1428 5.33475 11.3347 5.14284 11.5714 5.14284C11.8081 5.14284 12 5.3347 12 5.57142V6.85716C12 7.09383 11.8081 7.28573 11.5714 7.28573C11.3347 7.28573 11.1428 7.09387 11.1428 6.85716V5.57142ZM7.11727 7.71427C7.17408 7.61573 7.26778 7.54383 7.37766 7.51439C7.48753 7.48495 7.60462 7.50042 7.70311 7.55742L8.81738 8.20027C8.95106 8.2763 9.0338 8.41809 9.03412 8.57189C9.03445 8.72569 8.95238 8.86786 8.81902 8.94445C8.68566 9.02105 8.5215 9.02034 8.3888 8.94253L7.27453 8.29969C7.17605 8.24292 7.10409 8.14936 7.07461 8.03958C7.04517 7.9298 7.0605 7.81275 7.11727 7.71427ZM7.27458 12.2717L8.38884 11.6289C8.5215 11.5511 8.6857 11.5504 8.81906 11.627C8.95242 11.7036 9.0345 11.8457 9.03417 11.9995C9.03384 12.1533 8.95111 12.2951 8.81742 12.3712L7.70316 13.014C7.5705 13.0918 7.4063 13.0925 7.27294 13.0159C7.13958 12.9393 7.0575 12.7972 7.05783 12.6434C7.05816 12.4896 7.14089 12.3477 7.27458 12.2717Z" fill="currentColor"/>
<path d="M20.5623 11.0323C20.3155 10.7515 20.0605 10.461 19.8003 10.1143L19.5861 9.82752C18.4435 8.29668 17.6883 7.28568 16.2861 7.28568C15.5283 7.28568 14.9541 7.63668 14.2263 8.0811C13.3128 8.68578 12.3063 9.13663 11.2469 9.41568C11.0252 9.45936 10.8317 9.59319 10.7126 9.78514C10.5934 9.9771 10.5594 10.2099 10.6186 10.4279C10.7127 10.7552 10.9565 11.0184 11.2756 11.1372C11.893 11.3461 12.5609 11.3526 13.1823 11.1556C13.6075 11.0494 13.9791 10.9414 14.3039 10.8496C15.3783 10.5419 16.0881 10.3388 16.5891 10.8398C17.2049 11.5071 17.6776 12.2933 17.9781 13.1502C18.053 13.3751 17.9314 13.6181 17.7066 13.693C17.4817 13.7679 17.2387 13.6463 17.1638 13.4215C17.0414 13.0832 16.8912 12.7557 16.7146 12.4422V19.2856C16.7146 19.9957 16.139 20.5714 15.4289 20.5714H8.0459C8.80659 21.7054 10.7146 24 13.7146 24C15.8832 24 16.8594 23.1548 17.2962 22.446C17.6335 21.8729 18.123 21.4044 18.7104 21.0926C21.083 19.8814 22.286 18.264 22.286 16.2857C22.2861 12.9956 21.5253 12.1286 20.5623 11.0323Z" fill="currentColor"/>
<path d="M15.8572 19.2857V18.7783C15.72 18.8291 15.575 18.8558 15.4286 18.8572H5.14289C5.04018 18.8561 4.938 18.8424 4.83862 18.8164C4.80004 18.8741 4.75856 18.9297 4.71436 18.9832V19.2857C4.71436 19.5224 4.90621 19.7143 5.14293 19.7143H15.4287C15.6653 19.7143 15.8572 19.5224 15.8572 19.2857Z" fill="currentColor"/>
<path d="M3.21449 15.8572C3.80622 15.8572 4.28591 15.3775 4.28591 14.7857C4.28591 14.194 3.80622 13.7143 3.21449 13.7143C2.62276 13.7143 2.14307 14.194 2.14307 14.7857C2.14307 15.3775 2.62276 15.8572 3.21449 15.8572Z" fill="currentColor"/>
<path d="M3.21449 18.8572C3.80622 18.8572 4.28591 18.3775 4.28591 17.7857C4.28591 17.194 3.80622 16.7143 3.21449 16.7143C2.62276 16.7143 2.14307 17.194 2.14307 17.7857C2.14307 18.3775 2.62276 18.8572 3.21449 18.8572Z" fill="currentColor"/>
</g>
<defs>
<clipPath id="clip0_528_1584">
<rect width="24" height="24" fill="white"/>
</clipPath>
</defs>
</svg>
