<svg width="50" height="50" viewBox="0 0 50 50" fill="none" xmlns="http://www.w3.org/2000/svg">
<path d="M41.7297 20.7703L35.4797 14.5203C35.185 14.2357 34.7903 14.0782 34.3806 14.0817C33.9709 14.0853 33.579 14.2496 33.2893 14.5393C32.9996 14.829 32.8353 15.2209 32.8318 15.6306C32.8282 16.0403 32.9857 16.435 33.2703 16.7297L36.853 20.3125H15.625C15.2106 20.3125 14.8132 20.4771 14.5201 20.7701C14.2271 21.0631 14.0625 21.4606 14.0625 21.875C14.0625 22.2894 14.2271 22.6868 14.5201 22.9798C14.8132 23.2728 15.2106 23.4375 15.625 23.4375H40.625C40.934 23.4374 41.236 23.3457 41.4929 23.174C41.7498 23.0023 41.95 22.7583 42.0682 22.4729C42.1865 22.1874 42.2174 21.8733 42.1572 21.5702C42.0969 21.2672 41.9481 20.9888 41.7297 20.7703Z" fill="currentColor"/>
<path d="M34.3749 26.5625H9.37491C9.06593 26.5626 8.7639 26.6542 8.50701 26.8259C8.25012 26.9976 8.0499 27.2416 7.93166 27.5271C7.81343 27.8126 7.78249 28.1267 7.84275 28.4297C7.90301 28.7328 8.05177 29.0112 8.27022 29.2297L14.5202 35.4797C14.8149 35.7643 15.2096 35.9218 15.6193 35.9182C16.029 35.9147 16.4209 35.7504 16.7106 35.4607C17.0003 35.171 17.1646 34.7791 17.1682 34.3694C17.1717 33.9597 17.0142 33.565 16.7296 33.2703L13.1469 29.6875H34.3749C34.7893 29.6875 35.1867 29.5229 35.4798 29.2299C35.7728 28.9368 35.9374 28.5394 35.9374 28.125C35.9374 27.7106 35.7728 27.3132 35.4798 27.0201C35.1867 26.7271 34.7893 26.5625 34.3749 26.5625Z" fill="currentColor"/>
</svg>
