<svg className="w-5 h-5 group-hover:scale-110 duration-150" viewBox="0 0 26 26" fill="currentColor" xmlns="http://www.w3.org/2000/svg">
                    <path d="M13 23.25C7.4875 23.25 3 18.7625 3 13.25C3 7.7375 7.4875 3.25 13 3.25C18.5125 3.25 23 7.7375 23 13.25C23 18.7625 18.5125 23.25 13 23.25ZM13 0.75C11.3585 0.75 9.73303 1.07332 8.21646 1.70151C6.69989 2.32969 5.3219 3.25043 4.16117 4.41117C1.81696 6.75537 0.5 9.93479 0.5 13.25C0.5 16.5652 1.81696 19.7446 4.16117 22.0888C5.3219 23.2496 6.69989 24.1703 8.21646 24.7985C9.73303 25.4267 11.3585 25.75 13 25.75C16.3152 25.75 19.4946 24.433 21.8388 22.0888C24.183 19.7446 25.5 16.5652 25.5 13.25C25.5 11.6085 25.1767 9.98303 24.5485 8.46646C23.9203 6.94989 22.9996 5.5719 21.8388 4.41117C20.6781 3.25043 19.3001 2.32969 17.7835 1.70151C16.267 1.07332 14.6415 0.75 13 0.75ZM14.25 7H11.75V12H6.75V14.5H11.75V19.5H14.25V14.5H19.25V12H14.25V7Z"
                        fill="currentColor" />
                </svg>