<svg width="23" height="20" viewBox="0 0 32 24" fill="currentColor" xmlns="http://www.w3.org/2000/svg">
    <path
        d="M30.5454 10.1998H4.96556L12.6645 2.50081C12.8035 2.36663 12.9143 2.20613 12.9905 2.02866C13.0667 1.8512 13.1069 1.66033 13.1085 1.4672C13.1102 1.27406 13.0734 1.08253 13.0003 0.903768C12.9271 0.725007 12.8191 0.562603 12.6826 0.42603C12.546 0.289458 12.3836 0.181452 12.2048 0.108316C12.0261 0.0351792 11.8345 -0.00162337 11.6414 5.49199e-05C11.4483 0.00173321 11.2574 0.0418591 11.0799 0.118091C10.9025 0.194323 10.742 0.305135 10.6078 0.44406L0.425875 10.626C0.153188 10.8987 0 11.2687 0 11.6544C0 12.04 0.153188 12.41 0.425875 12.6827L10.6078 22.8646C10.8821 23.1296 11.2495 23.2762 11.6309 23.2729C12.0123 23.2696 12.3771 23.1166 12.6468 22.8469C12.9165 22.5772 13.0695 22.2124 13.0728 21.831C13.0761 21.4497 12.9295 21.0822 12.6645 20.8079L4.96556 13.1089H30.5454C30.9312 13.1089 31.3012 12.9557 31.574 12.6829C31.8468 12.4101 32 12.0401 32 11.6544C32 11.2686 31.8468 10.8986 31.574 10.6258C31.3012 10.353 30.9312 10.1998 30.5454 10.1998Z"
        fill="currentColor" />
</svg>