<svg width="25" height="25" viewBox="0 0 25 25" fill="currentColor" xmlns="http://www.w3.org/2000/svg">
<g clip-path="url(#clip0_232_2515)">
<path d="M23.8438 13.5098H1.15625C0.586998 13.5098 0.125 13.0478 0.125 12.4785C0.125 11.9093 0.586998 11.4473 1.15625 11.4473H23.8438C24.413 11.4473 24.875 11.9093 24.875 12.4785C24.875 13.0478 24.413 13.5098 23.8438 13.5098Z" fill="currentColor"/>
<path d="M23.8438 5.60352H1.15625C0.586998 5.60352 0.125 5.14152 0.125 4.57227C0.125 4.00301 0.586998 3.54102 1.15625 3.54102H23.8438C24.413 3.54102 24.875 4.00301 24.875 4.57227C24.875 5.14152 24.413 5.60352 23.8438 5.60352Z" fill="currentColor"/>
<path d="M23.8438 21.416H1.15625C0.586998 21.416 0.125 20.954 0.125 20.3848C0.125 19.8155 0.586998 19.3535 1.15625 19.3535H23.8438C24.413 19.3535 24.875 19.8155 24.875 20.3848C24.875 20.954 24.413 21.416 23.8438 21.416Z" fill="currentColor"/>
</g>
<defs>
<clipPath id="clip0_232_2515">
<rect width="24.75" height="24.75" fill="white" transform="translate(0.125 0.125)"/>
</clipPath>
</defs>
</svg>
