<svg width="30" height="30" viewBox="0 0 40 40" fill="none" xmlns="http://www.w3.org/2000/svg">
    <circle cx="20" cy="20" r="20" fill="#FF5630" />
    <path
        d="M20 31.25C20.663 31.25 21.2989 30.9866 21.7678 30.5178C22.2366 30.0489 22.5 29.413 22.5 28.75C22.5 28.087 22.2366 27.4511 21.7678 26.9822C21.2989 26.5134 20.663 26.25 20 26.25C19.337 26.25 18.7011 26.5134 18.2322 26.9822C17.7634 27.4511 17.5 28.087 17.5 28.75C17.5 29.413 17.7634 30.0489 18.2322 30.5178C18.7011 30.9866 19.337 31.25 20 31.25Z"
        fill="#263147" />
    <path d="M17.5 8.75H22.5V23.75H17.5V8.75Z" fill="#263147" />
</svg>