<svg width="196" height="143" viewBox="0 0 196 143" fill="none" xmlns="http://www.w3.org/2000/svg">
<g clip-path="url(#clip0_751_21393)">
<path d="M191.849 33.7886L188.261 50.3174L185.932 48.1778L182.006 50.8523L179.001 47.3041L172.239 51.9578L166.472 42.8108L160.048 46.3769L157.494 43.0426L149.323 47.4111L146.881 42.4185L152.591 16.1008L183.283 22.1097L191.849 33.7886Z" fill="#EBEBEB"/>
<path d="M183.284 22.1097L191.85 33.7887L181.199 31.7025L183.284 22.1097Z" fill="#DBDBDB"/>
<path d="M187.492 53.6339L182.214 77.8832L140.871 69.7704L146.112 45.7172L148.572 50.7097L156.743 46.3412L159.279 49.6755L165.722 46.1094L171.488 55.2564L178.232 50.6027L181.237 54.151L185.182 51.4942L187.492 53.6339Z" fill="#EBEBEB"/>
<path d="M128.322 50.781L86.1904 53.2594L82.8281 1.92565L114.122 0.0891113L125.598 9.23612L128.322 50.781Z" fill="#EBEBEB"/>
<path d="M114.123 0.0891113L125.6 9.23612L114.762 9.86018L114.123 0.0891113Z" fill="#DBDBDB"/>
<path d="M102.438 34.6267L102.269 33.4678C101.856 31.0607 102.551 28.3861 104.749 25.5689C106.721 23.0905 107.792 21.2896 107.679 19.2747C107.547 16.9925 105.951 15.5482 102.983 15.6552C101.274 15.7443 99.4329 16.3862 98.3058 17.2956L97.0098 14.5497C98.4937 13.3907 101.142 12.5348 103.64 12.3922C109.05 12.1069 111.699 15.1559 111.886 18.5615C112.074 21.5927 110.402 23.875 108.299 26.5496C106.364 28.9923 105.725 30.9893 106.007 33.2716L106.12 34.4306L102.438 34.6267ZM101.762 40.9387C101.668 39.2805 102.776 38.068 104.429 37.9789C106.082 37.8897 107.284 38.9952 107.378 40.6534C107.472 42.2047 106.458 43.4706 104.711 43.5776C103.058 43.6489 101.856 42.5078 101.762 40.9387Z" fill="#DBDBDB"/>
<path fill-rule="evenodd" clip-rule="evenodd" d="M31.4179 26.71C31.2489 27.0845 31.324 27.4945 31.587 27.8155C31.6496 27.8987 31.7185 27.9819 31.7936 28.0651C31.8562 28.1602 31.9188 28.2553 31.9814 28.3504C32.2068 28.6714 32.6013 28.8675 33.0145 28.8318L34.4421 28.707L34.8929 33.0933L33.4653 33.236C33.0521 33.2716 32.714 33.5391 32.5449 33.9135C32.4698 34.1156 32.3759 34.3117 32.2632 34.5019C32.0753 34.8585 32.0941 35.2864 32.3383 35.6074L33.1836 36.6951L29.3893 39.2805L28.5628 38.175C28.3186 37.854 27.9054 37.6936 27.4922 37.747C27.2667 37.7827 27.0351 37.8065 26.7972 37.8184C26.3839 37.8362 26.0083 38.068 25.8392 38.4246L25.2381 39.6549L20.993 37.8362L21.5941 36.6059C21.7632 36.2315 21.688 35.8214 21.4438 35.5182C21.3687 35.4231 21.2998 35.334 21.2372 35.2508C21.1621 35.1676 21.0932 35.0784 21.0306 34.9833C20.8052 34.6446 20.4107 34.4484 19.9975 34.4841L18.5699 34.6267L18.1191 30.2226L19.5279 30.0978C19.9599 30.0621 20.298 29.7947 20.4483 29.4202C20.536 29.2182 20.6361 29.0161 20.7488 28.814C20.9367 28.4752 20.9179 28.0473 20.6737 27.7263L19.8472 26.6209L23.6227 24.0533L24.4492 25.1409C24.6934 25.4619 25.1066 25.6224 25.5199 25.5689C25.7578 25.5332 25.9895 25.5094 26.2149 25.4975C26.6281 25.4797 27.0038 25.2479 27.1916 24.8913L27.7739 23.661L32.019 25.4797L31.4179 26.71ZM24.2802 28.707C22.5709 29.8838 22.1764 32.1483 23.3973 33.7709C24.6183 35.3934 27.0038 35.7679 28.7131 34.5911C30.4224 33.4321 30.8168 31.1676 29.5959 29.5451C28.375 27.9225 25.9895 27.548 24.2802 28.707Z" fill="#EBEBEB"/>
<path fill-rule="evenodd" clip-rule="evenodd" d="M189.125 85.0512C189.275 85.3008 189.557 85.4256 189.857 85.4256C189.932 85.4137 190.007 85.4078 190.083 85.4078C190.17 85.4078 190.252 85.4137 190.327 85.4256C190.627 85.4256 190.909 85.3008 191.04 85.0512L191.548 84.231L194.365 85.7822L193.877 86.6024C193.727 86.852 193.745 87.1373 193.896 87.3691C193.983 87.4999 194.065 87.6366 194.14 87.7792C194.271 88.0288 194.534 88.1893 194.835 88.1893H195.83V91.274H194.835C194.534 91.274 194.271 91.4344 194.14 91.6841C194.065 91.8267 193.983 91.9634 193.896 92.0942C193.745 92.326 193.727 92.6112 193.877 92.8609L194.365 93.6811L191.548 95.2323L191.04 94.3943C190.909 94.1625 190.627 94.0377 190.327 94.0377C190.252 94.0496 190.17 94.0555 190.083 94.0555C190.007 94.0555 189.932 94.0496 189.857 94.0377C189.557 94.0377 189.275 94.1625 189.125 94.4121L188.636 95.2323L185.8 93.6811L186.307 92.8609C186.457 92.6112 186.438 92.326 186.269 92.0942C186.182 91.9634 186.1 91.8267 186.025 91.6841C185.894 91.4344 185.631 91.274 185.349 91.274H184.354V88.1893H185.349C185.631 88.1893 185.894 88.0288 186.025 87.7792C186.1 87.6366 186.182 87.4999 186.269 87.3691C186.438 87.1373 186.457 86.852 186.307 86.6024L185.8 85.7822L188.636 84.231L189.125 85.0512ZM187.415 89.7227C187.415 91.1313 188.599 92.2725 190.083 92.2725C191.548 92.2725 192.75 91.1313 192.75 89.7227C192.75 88.332 191.548 87.1908 190.083 87.1908C188.599 87.1908 187.415 88.332 187.415 89.7227Z" fill="#EBEBEB"/>
<path fill-rule="evenodd" clip-rule="evenodd" d="M41.1855 13.0697C41.3733 13.2837 41.6738 13.3728 41.9556 13.3372C42.0307 13.3134 42.1121 13.3015 42.1998 13.3015C42.2749 13.2896 42.35 13.2777 42.4252 13.2659C42.7257 13.248 42.9887 13.0876 43.1014 12.8201L43.4771 11.9464L46.5012 13.141L46.1068 14.0147C45.9941 14.2644 46.0504 14.5675 46.2382 14.7814C46.351 14.9003 46.4511 15.0192 46.5388 15.1381C46.7078 15.3699 46.9896 15.4947 47.2713 15.459L48.2669 15.3342L48.6801 18.4189L47.7034 18.5258C47.4028 18.5615 47.1586 18.7576 47.0647 19.0251C47.0146 19.1677 46.952 19.3104 46.8769 19.453C46.7454 19.7026 46.783 19.9879 46.952 20.2197L47.5719 20.9686L44.9797 22.8586L44.3599 22.0919C44.1908 21.878 43.8903 21.771 43.6085 21.8245C43.5334 21.8364 43.452 21.8482 43.3644 21.8601C43.2892 21.872 43.2078 21.878 43.1202 21.878C42.8384 21.9136 42.5754 22.0741 42.4627 22.3237L42.0871 23.2152L39.0629 22.0206L39.4574 21.1469C39.5701 20.8795 39.5137 20.5942 39.3259 20.3802C39.2132 20.2613 39.113 20.1425 39.0253 20.0236C38.8563 19.7918 38.5745 19.667 38.2928 19.7026L37.2973 19.8096L36.8652 16.7428L37.8608 16.618C38.1613 16.5823 38.3867 16.404 38.4994 16.1366C38.5495 15.9939 38.6121 15.8513 38.6872 15.7086C38.7999 15.459 38.7812 15.1559 38.5933 14.9419L37.9922 14.193L40.5844 12.303L41.1855 13.0697ZM40.1148 17.9196C40.3214 19.3104 41.6551 20.291 43.1202 20.1127C44.5853 19.9344 45.6184 18.6507 45.4306 17.2599C45.2239 15.8691 43.8903 14.8884 42.4252 15.0846C40.9601 15.2629 39.927 16.5288 40.1148 17.9196Z" fill="#EBEBEB"/>
<path d="M0 117.121L24.4197 116.721L48.8554 116.561L97.6947 116.321L146.534 116.561L170.97 116.721L195.389 117.121L170.97 117.521L146.534 117.602L97.6947 117.922L48.8554 117.602L24.4197 117.441L0 117.121Z" fill="#263238"/>
<path d="M189.989 131.865C189.989 138.017 148.272 143 96.8229 143C45.3741 143 3.65625 138.017 3.65625 131.865C3.65625 125.712 45.3741 120.712 96.8229 120.712C148.272 120.712 189.989 125.712 189.989 131.865Z" fill="#EBEBEB"/>
<path d="M54.5974 125.758C53.6019 125.722 52.6251 126.168 52.0804 126.739C51.5545 127.291 51.1224 128.04 51.1412 128.878C51.1412 128.896 51.1976 128.896 51.1976 128.878C51.4418 127.309 52.9257 125.936 54.5974 125.811C54.635 125.811 54.635 125.758 54.5974 125.758Z" fill="#263238"/>
<path d="M47.2341 122.228C45.5624 122.21 43.6089 122.78 42.557 124.082C42.5194 124.135 42.5946 124.189 42.6509 124.171C44.1724 123.422 45.6187 122.852 47.2717 122.424C47.3844 122.388 47.3656 122.228 47.2341 122.228Z" fill="#263238"/>
<path d="M48.5486 122.691C46.8581 122.673 44.9046 123.244 43.8715 124.563C43.8152 124.617 43.8903 124.67 43.9467 124.635C45.4681 123.886 46.9145 123.333 48.5674 122.887C48.6801 122.87 48.6613 122.691 48.5486 122.691Z" fill="#263238"/>
<path d="M49.8456 123.173C48.155 123.155 46.2015 123.725 45.1684 125.045C45.1309 125.08 45.206 125.134 45.2436 125.116C46.7651 124.367 48.2114 123.814 49.8643 123.369C49.9958 123.333 49.9583 123.173 49.8456 123.173Z" fill="#263238"/>
<path d="M51.1403 123.654C49.4498 123.636 47.5151 124.207 46.4632 125.508C46.4257 125.562 46.5008 125.615 46.5572 125.597C48.0786 124.849 49.525 124.278 51.1779 123.85C51.2906 123.814 51.2718 123.654 51.1403 123.654Z" fill="#263238"/>
<path fill-rule="evenodd" clip-rule="evenodd" d="M48.9249 120.284C48.0045 121.407 46.6333 122.121 45.4311 122.905C45.3184 122.994 45.1681 122.887 45.1306 122.78C45.1118 122.78 45.0742 122.762 45.0742 122.727C45.1681 121.354 45.7504 119.767 46.5957 118.644C47.1216 117.93 48.1923 117.271 49.0376 117.948C49.8452 118.572 49.4508 119.642 48.9249 120.284ZM48.9812 118.965C48.8122 117.235 47.1592 118.572 46.8023 119.107C46.5769 119.446 46.3703 119.82 46.2012 120.177C45.8068 120.944 45.5438 121.746 45.2433 122.549C45.8068 122.121 46.4079 121.746 46.9901 121.354C47.6851 120.872 49.0939 119.927 48.9812 118.965Z" fill="#263238"/>
<path d="M51.5363 52.3858C52.0247 52.9385 52.5131 53.5091 52.9451 54.0975C53.3771 54.6859 53.7904 55.31 54.166 55.9341C55.0864 57.4853 55.387 58.5908 55.3682 58.5195C54.7295 56.9504 53.2081 54.7929 52.776 54.2045C52.344 53.6161 51.9496 52.992 51.5175 52.4036C51.4988 52.3858 51.5176 52.368 51.5363 52.3858Z" fill="#263238"/>
<path d="M49.2434 53.8301C50.0698 54.4541 51.8167 56.7899 52.4929 58.359C52.5305 58.4125 52.4929 58.4125 52.4366 58.359C51.9106 57.5745 49.7881 54.5789 49.2246 53.8301C49.2058 53.8301 49.2246 53.8122 49.2434 53.8301Z" fill="#263238"/>
<path d="M47.0271 54.7215C48.0038 55.6309 48.8115 56.879 49.4501 58.3055C49.4689 58.3589 49.4126 58.3589 49.375 58.2876C48.6049 57.093 48.0038 56.148 46.9895 54.7572C46.9707 54.7394 47.0083 54.7037 47.0271 54.7215Z" fill="#263238"/>
<path d="M157.794 134.281H43.3457L59.8941 45.1823H174.342L157.794 134.281Z" fill="currentColor"/>
<path d="M99.0583 35.9462H61.6038L59.8945 45.1823H99.9787L99.0583 35.9462Z" fill="currentColor"/>
<g opacity="0.1">
<path d="M157.794 134.281H43.3457L59.8941 45.1824H174.342L157.794 134.281Z" fill="black"/>
<path d="M99.0583 35.9462H61.6038L59.8945 45.1823H99.9787L99.0583 35.9462Z" fill="black"/>
</g>
<path d="M57.5648 39.7261C57.4145 39.2091 57.377 38.692 57.377 38.1749C57.377 37.6578 57.4145 37.1407 57.5648 36.6237C57.7151 37.1407 57.7526 37.6578 57.7526 38.1749C57.7526 38.692 57.7151 39.2091 57.5648 39.7261Z" fill="#263238"/>
<path d="M54.2396 40.6355C53.8264 40.2611 53.5259 39.8153 53.2629 39.3695C52.9811 38.9238 52.737 38.4602 52.6055 37.9431C52.9999 38.3176 53.3005 38.7633 53.5822 39.1912C53.8452 39.6548 54.0894 40.1184 54.2396 40.6355Z" fill="#263238"/>
<path d="M51.8363 43.0069C51.2916 42.8643 50.8032 42.6325 50.3336 42.3829C49.864 42.1154 49.3945 41.8301 49 41.4557C49.5447 41.5805 50.0331 41.8123 50.5215 42.0798C50.9723 42.3294 51.4419 42.6325 51.8363 43.0069Z" fill="#263238"/>
<path d="M51.0086 46.1986C50.4638 46.3412 49.9191 46.3769 49.3744 46.3769C48.8297 46.3769 48.285 46.3412 47.7402 46.1986C48.285 46.0559 48.8297 46.0203 49.3744 46.0203C49.9191 46.0203 50.4638 46.0559 51.0086 46.1986Z" fill="#263238"/>
<path d="M51.9672 49.3546C51.5727 49.7291 51.1031 50.0322 50.6523 50.2818C50.164 50.5493 49.6756 50.7811 49.1309 50.9059C49.5253 50.5314 49.9949 50.2461 50.4645 49.9787C50.9341 49.7291 51.4225 49.4973 51.9672 49.3546Z" fill="#263238"/>
<path d="M54.4662 51.637C54.3159 52.154 54.0718 52.6176 53.8088 53.0634C53.527 53.5092 53.2265 53.9549 52.832 54.3294C52.9823 53.8123 53.2077 53.3487 53.4895 52.8851C53.7712 52.4393 54.0718 52.0114 54.4662 51.637Z" fill="#263238"/>
<path d="M57.8285 52.4214C57.9787 52.9385 58.0163 53.4556 58.0163 53.9726C58.0163 54.4897 57.9787 55.0068 57.8285 55.5239C57.6782 55.0068 57.6406 54.4897 57.6406 53.9726C57.6406 53.4556 57.6782 52.9385 57.8285 52.4214Z" fill="#263238"/>
<path d="M61.1523 51.5121C61.5656 51.8865 61.8661 52.3145 62.1291 52.7602C62.4108 53.2238 62.655 53.6874 62.7865 54.2045C62.3921 53.83 62.0915 53.3843 61.8098 52.9385C61.5468 52.4928 61.3026 52.0292 61.1523 51.5121Z" fill="#263238"/>
<path d="M63.5566 49.1406C64.1014 49.2833 64.5897 49.5151 65.0593 49.7647C65.5289 50.0321 65.9985 50.3174 66.393 50.6919C65.8482 50.5492 65.3599 50.3174 64.8715 50.0678C64.4019 49.8003 63.9511 49.5151 63.5566 49.1406Z" fill="#263238"/>
<path d="M64.3828 45.9491C64.9275 45.8064 65.4723 45.7708 66.017 45.7708C66.5617 45.7708 67.1064 45.8064 67.6512 45.9491C67.1064 46.0917 66.5617 46.1274 66.017 46.1274C65.4723 46.1274 64.9275 46.0917 64.3828 45.9491Z" fill="#263238"/>
<path d="M63.4258 42.7931C63.8202 42.4008 64.271 42.1155 64.7406 41.8659C65.229 41.5984 65.7174 41.3666 66.2621 41.2418C65.8676 41.6163 65.3981 41.9015 64.9285 42.169C64.4589 42.4186 63.9705 42.6504 63.4258 42.7931Z" fill="#263238"/>
<path d="M60.9277 40.5108C61.078 39.9937 61.3222 39.5301 61.5852 39.0665C61.8669 38.6207 62.1674 38.1928 62.5619 37.8184C62.4116 38.3354 62.1674 38.799 61.9045 39.2448C61.6227 39.6906 61.3222 40.1363 60.9277 40.5108Z" fill="#263238"/>
<path d="M157.624 134.281H42.9319L26.6465 48.4095H141.339L157.624 134.281Z" fill="currentColor"/>
<path d="M150.018 95.8564C150.268 95.8088 150.512 95.7554 150.75 95.6959" stroke="#263238" stroke-width="2" stroke-miterlimit="10"/>
<path d="M152.197 95.2858C157.945 93.4493 162.753 89.1522 163.204 84.1418C164.2 73.0869 150.018 66.9889 151.483 54.2045C152.892 42.0263 166.341 41.1527 171.751 42.8465C177.705 44.7009 175.658 50.1392 170.267 49.4438C160.913 48.2135 155.033 38.5672 159.466 27.6015C162.791 19.4174 171.075 16.3327 174.437 15.3877" stroke="#263238" stroke-width="2" stroke-miterlimit="10" stroke-dasharray="8.01 8.01"/>
<path d="M175.15 15.2093C175.62 15.0845 175.883 15.0488 175.883 15.0488" stroke="#263238" stroke-width="2" stroke-miterlimit="10"/>
<path d="M181.837 13.0697C180.879 10.2525 174.474 11.2689 175.713 14.9598C176.972 18.6328 182.795 15.8869 181.837 13.0697Z" fill="#263238"/>
<path d="M172.24 11.9464C172.277 10.6982 174.099 9.75324 176.654 10.1812C179.208 10.6269 181.631 12.2673 181.631 12.2673C181.631 12.2673 179.096 13.7294 176.503 13.9969C173.911 14.2465 172.183 13.1767 172.24 11.9464Z" fill="#EBEBEB"/>
<path d="M181.63 12.2673C180.297 12.2673 178.963 12.2317 177.648 12.196C176.315 12.1425 174.981 12.089 173.666 11.9821C174.981 11.9821 176.315 12.0177 177.648 12.0534C178.963 12.1069 180.297 12.1604 181.63 12.2673Z" fill="#263238"/>
<path d="M174.812 10.8409C175.188 11.0014 175.545 11.2154 175.902 11.4115C176.259 11.6433 176.597 11.8394 176.935 12.1069C176.541 11.9464 176.184 11.7325 175.827 11.5363C175.489 11.3224 175.132 11.1084 174.812 10.8409Z" fill="#263238"/>
<path d="M178.287 12.1426C177.949 12.4279 177.592 12.6418 177.216 12.8736C176.84 13.1054 176.484 13.3194 176.07 13.4977C176.408 13.2302 176.784 12.9984 177.141 12.7666C177.517 12.5527 177.892 12.3209 178.287 12.1426Z" fill="#263238"/>
<path d="M178.682 11.4471C178.869 11.5363 179.039 11.6611 179.208 11.7681C179.358 11.9107 179.527 12.0355 179.64 12.196C179.452 12.1247 179.283 11.9999 179.114 11.8751C178.963 11.7503 178.794 11.6254 178.682 11.4471Z" fill="#263238"/>
<path d="M174.681 19.2747C175.47 20.2554 177.536 20.0236 179.339 18.2406C181.143 16.4575 182.082 13.8008 182.082 13.8008C182.082 13.8008 179.133 14.0147 176.879 15.2272C174.606 16.4575 173.873 18.294 174.681 19.2747Z" fill="#EBEBEB"/>
<path d="M182.082 13.8008C181.012 14.5318 179.96 15.2985 178.908 16.0652C177.856 16.8498 176.804 17.6165 175.809 18.4367C176.879 17.7056 177.931 16.9389 178.983 16.1722C180.035 15.3877 181.068 14.621 182.082 13.8008Z" fill="#263238"/>
<path d="M177.441 18.7398C177.648 18.3832 177.798 18.0266 177.967 17.6521C178.118 17.2955 178.268 16.9211 178.381 16.5288C178.174 16.8854 178.005 17.242 177.836 17.6165C177.686 17.9731 177.535 18.3475 177.441 18.7398Z" fill="#263238"/>
<path d="M179.452 15.7442C179.02 15.7086 178.569 15.7264 178.137 15.7442C177.705 15.7621 177.273 15.7977 176.822 15.869C177.273 15.9047 177.705 15.8869 178.137 15.869C178.588 15.8512 179.02 15.8155 179.452 15.7442Z" fill="#263238"/>
<path d="M180.203 16.1009C180.297 15.9226 180.372 15.7264 180.429 15.5303C180.466 15.352 180.522 15.1559 180.522 14.9419C180.41 15.1202 180.353 15.3163 180.297 15.4946C180.241 15.6908 180.203 15.8869 180.203 16.1009Z" fill="#263238"/>
<path d="M181.837 13.0697C181.255 13.248 180.617 12.9449 180.429 12.3922C180.241 11.8216 180.56 11.2154 181.161 11.0371C181.744 10.8588 182.382 11.1619 182.57 11.7325C182.758 12.2852 182.439 12.8914 181.837 13.0697Z" fill="#455A64"/>
<path d="M182.533 15.1023C181.951 15.2985 181.312 14.9775 181.124 14.4248C180.936 13.8542 181.256 13.248 181.838 13.0697C182.439 12.8914 183.078 13.1945 183.265 13.765C183.453 14.3178 183.134 14.924 182.533 15.1023Z" fill="#455A64"/>
</g>
<defs>
<clipPath id="clip0_751_21393">
<rect width="196" height="143" fill="white"/>
</clipPath>
</defs>
</svg>
