<svg width="512" height="513" viewBox="0 0 512 513" fill="none" xmlns="http://www.w3.org/2000/svg">
                    <mask id="mask0_816_6437" maskUnits="userSpaceOnUse" x="0" y="1" width="512" height="512">
                        <path d="M0 1H512V513H0V1Z" fill="white" />
                    </mask>
                    <g mask="url(#mask0_816_6437)">
                        <path d="M44.969 57.5247C41.8868 57.5247 39.38 60.0325 39.38 63.1137V341.058C39.38 344.139 41.8868 346.647 44.969 346.647H242.703C245.784 346.647 248.291 344.139 248.291 341.058V63.1137C248.291 60.0325 245.784 57.5247 242.703 57.5247H44.969ZM242.703 346.907H44.969C41.7465 346.907 39.124 344.285 39.124 341.062V63.1178C39.124 59.8963 41.7465 57.2728 44.969 57.2728H242.703C245.925 57.2728 248.547 59.8963 248.547 63.1178V341.062C248.547 344.285 245.925 346.907 242.703 346.907Z" fill="#ECECEC" />
                        <path d="M266.455 57.5247C263.374 57.5247 260.867 60.0325 260.867 63.1137V341.058C260.867 344.139 263.374 346.647 266.455 346.647H464.19C467.271 346.647 469.779 344.139 469.779 341.058V63.1137C469.779 60.0325 467.271 57.5247 464.19 57.5247H266.455ZM464.19 346.907H266.455C263.234 346.907 260.611 344.285 260.611 341.062V63.1178C260.611 59.8963 263.234 57.2728 266.455 57.2728H464.19C467.412 57.2728 470.035 59.8963 470.035 63.1178V341.062C470.035 344.285 467.412 346.907 464.19 346.907Z" fill="#ECECEC" />
                        <path d="M152.166 389.403H207.605V392.578H152.166V389.403Z" fill="#E1E1E1" />
                        <path d="M174.898 320.068L159.578 389.4H200.182L184.862 320.068C183.683 314.733 176.077 314.733 174.898 320.068Z" fill="#E1E1E1" />
                        <path d="M187.914 333.831H171.859L167.979 351.399H191.795L187.914 333.831Z" fill="#F5F5F5" />
                        <path d="M192.471 354.495H167.297L165.329 363.39H194.439L192.471 354.495Z" fill="#F5F5F5" />
                        <path d="M74.2568 392.578H82.497L106.741 257H98.5011L74.2568 392.578Z" fill="#E1E1E1" />
                        <path d="M289.955 392.578H298.195L322.439 257H314.199L289.955 392.578Z" fill="#E1E1E1" />
                        <path d="M346.675 312.869H74.25V263.599H346.675V312.869Z" fill="#ECECEC" />
                        <path d="M103.793 310.699H75.5518L91.2169 265.775H119.457L103.793 310.699Z" fill="#FAFAFA" />
                        <path d="M160.276 310.699H132.035L147.699 265.775H175.94L160.276 310.699Z" fill="#FAFAFA" />
                        <path d="M216.76 310.699H188.52L204.184 265.775H232.425L216.76 310.699Z" fill="#FAFAFA" />
                        <path d="M273.233 310.699H244.992L260.656 265.775H288.897L273.233 310.699Z" fill="#FAFAFA" />
                        <path d="M329.717 310.699H301.477L317.141 265.775H345.382L329.717 310.699Z" fill="#FAFAFA" />
                        <path d="M130.989 392.578H122.749L98.5049 257H106.745L130.989 392.578Z" fill="#E1E1E1" />
                        <path d="M346.675 392.578H338.435L314.19 257H322.431L346.675 392.578Z" fill="#E1E1E1" />
                        <path d="M385.023 388.41H457.727V392.573H385.023V388.41Z" fill="#E1E1E1" />
                        <path d="M414.361 299.65L394.748 388.41H447.996L428.383 299.65C426.724 292.142 416.02 292.142 414.361 299.65Z" fill="#E1E1E1" />
                        <path d="M431.902 315.542H410.848L405.759 338.582H436.991L431.902 315.542Z" fill="#F5F5F5" />
                        <path d="M437.883 342.637H404.87L402.289 354.301H440.464L437.883 342.637Z" fill="#F5F5F5" />
                        <path d="M474.112 248.706V278.71C474.112 280.721 472.158 282.15 470.241 281.543L37.1195 144.286C35.8836 143.895 35.0449 142.748 35.0449 141.453V111.449C35.0449 109.437 36.9987 108.008 38.9156 108.615L472.037 245.872C473.272 246.264 474.112 247.409 474.112 248.706Z" fill="#ECECEC" />
                        <path d="M440.023 269.677L463.868 277.234L450.642 241.376L426.797 233.819L440.023 269.677Z" fill="#FAFAFA" />
                        <path d="M392.334 254.563L416.179 262.12L402.953 226.262L379.108 218.705L392.334 254.563Z" fill="#FAFAFA" />
                        <path d="M344.647 239.449L368.492 247.006L355.266 211.147L331.421 203.591L344.647 239.449Z" fill="#FAFAFA" />
                        <path d="M296.96 224.345L320.805 231.902L307.579 196.043L283.734 188.486L296.96 224.345Z" fill="#FAFAFA" />
                        <path d="M249.272 209.231L273.117 216.787L259.891 180.928L236.046 173.372L249.272 209.231Z" fill="#FAFAFA" />
                        <path d="M201.584 194.116L225.429 201.673L212.203 165.815L188.358 158.258L201.584 194.116Z" fill="#FAFAFA" />
                        <path d="M153.886 179.002L177.731 186.558L164.505 150.7L140.66 143.144L153.886 179.002Z" fill="#FAFAFA" />
                        <path d="M106.198 163.888L130.043 171.445L116.817 135.586L92.9717 128.029L106.198 163.888Z" fill="#FAFAFA" />
                        <path d="M58.5131 148.773L82.358 156.33L69.132 120.472L45.2871 112.915L58.5131 148.773Z" fill="#FAFAFA" />
                    </g>
                    <mask id="mask1_816_6437" maskUnits="userSpaceOnUse" x="0" y="0" width="512" height="512">
                        <path d="M0 0H512V512H0V0Z" fill="white" />
                    </mask>
                    <g mask="url(#mask1_816_6437)">
                        <path d="M396.963 69.6116C393.393 67.2605 389.686 65.0937 385.861 63.1296C352.945 46.2214 307.619 42.2124 275.996 60.7448C257.16 71.7825 249.113 93.0909 235.104 109.12C217.48 129.283 189.774 140.762 165.211 152.161C132.038 167.555 102.232 184.789 90.5857 218.945C80.9038 247.343 85.8477 280.944 109.18 303.574C131.374 325.102 160.882 341.253 190.61 351.604C216.193 360.51 239.778 360.004 258.748 340.966C271.136 328.534 278.248 312.43 285.872 296.973C294.492 279.498 305.714 257.685 325.16 248.789C343.714 240.3 367.444 243.484 387.157 238.011C419.72 228.974 442.84 199.777 446.47 168.265C450.781 130.837 430.43 91.6389 396.968 69.6116" fill="currentColor" />
                        <mask id="mask2_816_6437" maskUnits="userSpaceOnUse" x="85" y="48" width="363" height="310">
                            <path d="M85.9023 48.5376H447.036V357.192H85.9023V48.5376Z" fill="white" />
                        </mask>
                        <g mask="url(#mask2_816_6437)">
                            <g opacity="0.89999">
                                <path d="M396.963 69.6116C393.393 67.2605 389.686 65.0937 385.861 63.1296C352.945 46.2214 307.619 42.2124 275.996 60.7448C257.16 71.7825 249.113 93.0909 235.104 109.12C217.48 129.283 189.774 140.762 165.211 152.161C132.038 167.555 102.232 184.789 90.5857 218.945C80.9038 247.343 85.8477 280.944 109.18 303.574C131.374 325.102 160.882 341.253 190.61 351.604C216.193 360.51 239.778 360.004 258.748 340.966C271.136 328.534 278.248 312.43 285.872 296.973C294.492 279.498 305.714 257.685 325.16 248.789C343.714 240.3 367.444 243.484 387.157 238.011C419.72 228.974 442.84 199.777 446.47 168.265C450.781 130.837 430.43 91.6389 396.968 69.6116" fill="white" />
                            </g>
                        </g>
                    </g>
                    <mask id="mask3_816_6437" maskUnits="userSpaceOnUse" x="0" y="1" width="512" height="512">
                        <path d="M0 1H512V513H0V1Z" fill="white" />
                    </mask>
                    <g mask="url(#mask3_816_6437)">
                        <path d="M454.544 427.228C454.544 433.632 365.653 438.822 256 438.822C146.347 438.822 57.457 433.632 57.457 427.228C57.457 420.824 146.347 415.633 256 415.633C365.653 415.633 454.544 420.824 454.544 427.228Z" fill="#F5F5F5" />
                    </g>
                    <mask id="mask4_816_6437" maskUnits="userSpaceOnUse" x="0" y="1" width="512" height="512">
                        <path d="M0 1H512V513H0V1Z" fill="white" />
                    </mask>
                    <g mask="url(#mask4_816_6437)">
                        <path d="M334.306 418.354H322.497V62.565C322.497 60.645 334.306 60.645 334.306 62.565V418.354Z" fill="#1A2E35" />
                        <path d="M334.306 196.174L322.497 198.553V182.221H334.306V196.174Z" fill="black" />
                        <path d="M407.275 192.078L241.592 179.756C234.853 179.256 229.748 173.33 230.249 166.59L237.169 73.5503C237.671 66.8103 243.595 61.7067 250.335 62.2074L416.018 74.5302C422.758 75.031 427.861 80.9558 427.361 87.6948L420.44 180.736C419.939 187.475 414.015 192.58 407.275 192.078Z" fill="white" />
                        <path d="M249.415 63.7099C246.851 63.7099 244.391 64.6243 242.413 66.3283C240.23 68.2094 238.911 70.8134 238.7 73.6652L231.78 166.705C231.341 172.617 235.792 177.786 241.705 178.225L407.388 190.547C410.239 190.758 413.011 189.84 415.194 187.96C417.376 186.079 418.696 183.473 418.907 180.623L425.827 87.5814C426.266 81.6698 421.814 76.5017 415.903 76.0624L250.219 63.7396C249.951 63.7201 249.683 63.7099 249.415 63.7099ZM408.197 193.645C407.852 193.645 407.506 193.633 407.159 193.606L241.475 181.285C237.806 181.012 234.455 179.316 232.038 176.512C229.622 173.707 228.442 170.141 228.714 166.472L235.633 73.4328C235.907 69.7638 237.602 66.4133 240.406 63.9956C243.211 61.58 246.776 60.3932 250.446 60.6717L416.129 72.9945C419.798 73.2679 423.149 74.9626 425.566 77.7663C427.982 80.5721 429.162 84.1367 428.89 87.8056L421.97 180.847C421.697 184.515 420.002 187.867 417.198 190.282C414.658 192.471 411.495 193.645 408.197 193.645Z" fill="currentColor" />
                        <path d="M295.004 102.775L295.966 89.833L284.005 101.957L295.004 102.775ZM294.344 111.639L273.529 110.092L274.228 100.695L296.883 77.4999L306.842 78.2413L304.962 103.517L310.124 103.901L309.465 112.764L304.303 112.38L303.731 120.068L293.773 119.326L294.344 111.639Z" fill="currentColor" />
                        <path d="M325.326 100.85C324.936 106.087 325.133 109.7 325.916 111.685C326.699 113.671 327.969 114.729 329.728 114.86C330.887 114.946 331.922 114.613 332.834 113.862C333.745 113.114 334.467 111.875 335 110.146C335.533 108.419 335.938 105.693 336.215 101.972C336.62 96.5106 336.432 92.8068 335.645 90.8581C334.859 88.9094 333.54 87.867 331.689 87.7298C329.799 87.5885 328.364 88.4456 327.38 90.299C326.396 92.1535 325.711 95.6709 325.326 100.85ZM313.994 99.9799C314.576 92.1637 316.389 86.7969 319.436 83.8847C322.483 80.9693 326.886 79.7272 332.647 80.1553C335.415 80.3611 337.662 80.8721 339.387 81.6861C341.114 82.5013 342.497 83.4966 343.537 84.6742C344.579 85.8518 345.376 87.0683 345.932 88.3227C346.487 89.5771 346.902 91.022 347.175 92.6593C347.713 95.7856 347.859 99.0112 347.612 102.339C347.057 109.801 345.388 115.168 342.606 118.441C339.824 121.713 335.347 123.118 329.176 122.659C325.716 122.402 322.96 121.644 320.91 120.381C318.862 119.119 317.232 117.372 316.027 115.137C315.147 113.548 314.53 111.42 314.174 108.751C313.818 106.084 313.757 103.16 313.994 99.9799Z" fill="currentColor" />
                        <path d="M364.032 95.1567L353.375 92.4165C354.529 89.0424 356.451 86.5346 359.139 84.8911C361.829 83.2476 365.51 82.6004 370.186 82.9486C375.553 83.3479 379.359 84.6382 381.606 86.8152C383.849 88.9953 384.86 91.5993 384.635 94.6283C384.502 96.407 383.896 97.9788 382.816 99.3459C381.737 100.714 380.175 101.868 378.131 102.806C379.691 103.317 380.873 103.865 381.675 104.451C382.978 105.394 383.957 106.58 384.612 108.013C385.267 109.443 385.523 111.112 385.382 113.019C385.204 115.413 384.406 117.663 382.991 119.765C381.574 121.871 379.644 123.428 377.198 124.442C374.754 125.454 371.614 125.816 367.781 125.532C364.04 125.254 361.124 124.595 359.028 123.555C356.933 122.516 355.252 121.099 353.984 119.302C352.717 117.505 351.805 115.299 351.248 112.681L362.777 112.016C363.056 114.348 363.633 115.996 364.512 116.954C365.389 117.913 366.559 118.446 368.017 118.554C369.551 118.668 370.869 118.202 371.972 117.155C373.075 116.11 373.696 114.652 373.834 112.781C373.977 110.875 373.595 109.36 372.692 108.239C371.787 107.12 370.494 106.496 368.811 106.372C367.914 106.305 366.662 106.437 365.058 106.769L366.254 98.6495C366.882 98.7909 367.375 98.8738 367.73 98.9004C369.226 99.012 370.511 98.628 371.582 97.7474C372.653 96.8698 373.238 95.7752 373.335 94.4655C373.428 93.2131 373.128 92.185 372.437 91.3802C371.743 90.5774 370.743 90.1258 369.434 90.0285C368.088 89.9292 366.963 90.2548 366.06 91.0054C365.159 91.756 364.482 93.1394 364.032 95.1567Z" fill="currentColor" />
                        <path d="M278.599 127.781L294.492 128.963L294.187 133.061L284.237 132.322L284.011 135.371L293.239 136.058L292.949 139.972L283.719 139.285L283.439 143.07L293.676 143.832L293.353 148.177L277.172 146.973L278.599 127.781Z" fill="currentColor" />
                        <path d="M303.431 137.448L305.931 137.634C306.202 137.654 306.733 137.607 307.522 137.489C307.92 137.44 308.256 137.263 308.529 136.96C308.801 136.656 308.954 136.293 308.985 135.874C309.031 135.254 308.87 134.765 308.501 134.403C308.134 134.042 307.408 133.821 306.326 133.741L303.721 133.547L303.431 137.448ZM296.626 148.421L298.053 129.229L307.937 129.964C309.77 130.101 311.159 130.362 312.104 130.749C313.05 131.135 313.787 131.775 314.317 132.67C314.847 133.565 315.067 134.624 314.976 135.846C314.897 136.911 314.601 137.812 314.09 138.551C313.578 139.289 312.908 139.869 312.077 140.289C311.548 140.559 310.835 140.759 309.938 140.894C310.627 141.183 311.124 141.457 311.429 141.716C311.636 141.89 311.927 142.25 312.302 142.797C312.679 143.343 312.926 143.76 313.045 144.051L315.503 149.825L308.802 149.328L306.068 143.227C305.723 142.437 305.402 141.918 305.105 141.667C304.699 141.338 304.226 141.153 303.685 141.113L303.161 141.074L302.583 148.864L296.626 148.421Z" fill="currentColor" />
                        <path d="M324.29 139.004L326.789 139.191C327.06 139.21 327.591 139.163 328.381 139.045C328.778 138.996 329.114 138.819 329.387 138.516C329.66 138.212 329.812 137.849 329.843 137.43C329.889 136.81 329.728 136.321 329.36 135.959C328.992 135.598 328.266 135.377 327.185 135.297L324.58 135.103L324.29 139.004ZM317.484 149.977L318.912 130.786L328.794 131.52C330.627 131.657 332.017 131.918 332.962 132.305C333.908 132.691 334.646 133.331 335.176 134.226C335.705 135.121 335.926 136.18 335.834 137.402C335.756 138.467 335.46 139.368 334.949 140.107C334.437 140.845 333.766 141.425 332.936 141.845C332.406 142.115 331.693 142.315 330.796 142.45C331.486 142.739 331.982 143.013 332.287 143.272C332.494 143.447 332.785 143.806 333.161 144.354C333.538 144.899 333.783 145.316 333.903 145.607L336.362 151.381L329.661 150.884L326.927 144.783C326.582 143.993 326.26 143.474 325.963 143.223C325.558 142.894 325.085 142.709 324.544 142.669L324.02 142.63L323.441 150.42L317.484 149.977Z" fill="currentColor" />
                        <path d="M343.695 142.312C343.551 144.25 343.808 145.669 344.464 146.569C345.122 147.469 346.07 147.966 347.309 148.057C348.583 148.152 349.601 147.81 350.36 147.034C351.12 146.257 351.58 144.794 351.74 142.648C351.874 140.841 351.608 139.494 350.941 138.606C350.274 137.718 349.317 137.228 348.069 137.135C346.874 137.046 345.881 137.398 345.094 138.191C344.307 138.984 343.841 140.358 343.695 142.312ZM337.767 141.845C338 138.712 339.054 136.338 340.929 134.723C342.804 133.105 345.3 132.414 348.416 132.646C351.61 132.883 354.008 133.924 355.607 135.768C357.209 137.611 357.894 140.077 357.664 143.167C357.498 145.411 356.983 147.222 356.121 148.601C355.259 149.98 354.085 151.016 352.599 151.708C351.113 152.401 349.305 152.668 347.176 152.509C345.011 152.348 343.246 151.871 341.879 151.076C340.512 150.281 339.444 149.105 338.673 147.546C337.901 145.989 337.6 144.088 337.767 141.845Z" fill="currentColor" />
                        <path d="M367.012 142.179L369.511 142.365C369.783 142.385 370.313 142.338 371.102 142.22C371.501 142.171 371.837 141.994 372.109 141.691C372.381 141.386 372.534 141.024 372.565 140.605C372.611 139.985 372.45 139.496 372.082 139.134C371.714 138.773 370.989 138.552 369.906 138.472L367.301 138.278L367.012 142.179ZM360.206 153.152L361.634 133.96L371.517 134.695C373.35 134.832 374.739 135.093 375.684 135.48C376.63 135.866 377.367 136.506 377.897 137.401C378.427 138.296 378.647 139.355 378.556 140.577C378.477 141.641 378.182 142.543 377.67 143.282C377.159 144.02 376.488 144.6 375.658 145.02C375.128 145.29 374.415 145.49 373.518 145.625C374.207 145.914 374.704 146.188 375.01 146.447C375.216 146.622 375.507 146.981 375.882 147.528C376.259 148.074 376.506 148.491 376.625 148.782L379.083 154.556L372.382 154.058L369.648 147.957C369.304 147.168 368.982 146.649 368.685 146.398C368.279 146.069 367.806 145.884 367.266 145.844L366.741 145.805L366.163 153.595L360.206 153.152Z" fill="currentColor" />
                        <path d="M258.816 168.26L260.119 150.748L271.933 151.626L271.778 153.692L262.282 152.986L261.879 158.409L270.097 159.021L269.943 161.088L261.725 160.477L261.134 168.432L258.816 168.26Z" fill="#1A2E35" />
                        <path d="M275.958 161C275.801 163.111 276.244 164.816 277.289 166.114C278.333 167.412 279.711 168.125 281.424 168.253C283.167 168.382 284.648 167.876 285.867 166.734C287.084 165.592 287.778 163.894 287.945 161.64C288.051 160.215 287.902 158.952 287.5 157.853C287.098 156.755 286.454 155.877 285.57 155.223C284.686 154.569 283.665 154.198 282.511 154.112C280.871 153.99 279.418 154.45 278.151 155.488C276.885 156.528 276.153 158.366 275.958 161ZM273.571 160.787C273.788 157.88 274.737 155.663 276.42 154.134C278.104 152.606 280.179 151.934 282.648 152.118C284.264 152.238 285.693 152.732 286.934 153.602C288.175 154.47 289.083 155.621 289.662 157.054C290.239 158.485 290.463 160.077 290.333 161.829C290.201 163.605 289.725 165.168 288.904 166.515C288.083 167.864 286.988 168.85 285.621 169.472C284.254 170.095 282.808 170.35 281.288 170.238C279.64 170.114 278.196 169.606 276.957 168.714C275.719 167.821 274.816 166.661 274.249 165.233C273.682 163.806 273.457 162.324 273.571 160.787Z" fill="#1A2E35" />
                        <path d="M295.752 161.174L300.734 161.545C301.793 161.623 302.629 161.575 303.243 161.402C303.856 161.226 304.337 160.91 304.683 160.451C305.03 159.992 305.223 159.48 305.265 158.915C305.327 158.087 305.077 157.383 304.516 156.806C303.954 156.227 303.025 155.89 301.726 155.794L296.183 155.381L295.752 161.174ZM292.708 170.785L294.011 153.273L301.775 153.851C303.335 153.967 304.51 154.213 305.299 154.587C306.088 154.963 306.696 155.565 307.123 156.398C307.549 157.231 307.726 158.129 307.655 159.092C307.562 160.335 307.082 161.352 306.215 162.145C305.347 162.937 304.064 163.385 302.366 163.492C302.958 163.832 303.403 164.158 303.7 164.467C304.33 165.14 304.913 165.963 305.45 166.94L308.141 171.933L305.226 171.716L303.18 167.901C302.581 166.799 302.084 165.953 301.687 165.363C301.29 164.773 300.928 164.353 300.597 164.105C300.267 163.856 299.927 163.675 299.575 163.56C299.316 163.485 298.889 163.425 298.291 163.38L295.603 163.18L295.025 170.957L292.708 170.785Z" fill="#1A2E35" />
                        <path d="M313.313 162.106L317.1 162.387C318.127 162.464 318.868 162.45 319.324 162.348C319.926 162.216 320.393 161.96 320.721 161.576C321.05 161.19 321.237 160.692 321.283 160.079C321.326 159.499 321.225 158.976 320.979 158.513C320.733 158.05 320.357 157.719 319.853 157.517C319.347 157.315 318.464 157.167 317.207 157.073L313.706 156.813L313.313 162.106ZM312.712 170.192L317.071 170.517C317.82 170.573 318.347 170.584 318.654 170.55C319.195 170.494 319.653 170.367 320.028 170.172C320.402 169.975 320.722 169.673 320.984 169.264C321.247 168.856 321.399 168.371 321.441 167.814C321.489 167.161 321.364 166.582 321.065 166.075C320.767 165.568 320.328 165.196 319.749 164.955C319.171 164.717 318.324 164.556 317.209 164.473L313.16 164.172L312.712 170.192ZM310.24 172.086L311.543 154.574L318.113 155.063C319.451 155.162 320.51 155.42 321.292 155.834C322.075 156.25 322.666 156.842 323.07 157.612C323.472 158.383 323.644 159.17 323.585 159.975C323.53 160.724 323.274 161.413 322.818 162.042C322.363 162.674 321.71 163.163 320.86 163.508C321.895 163.897 322.671 164.487 323.185 165.277C323.699 166.069 323.917 166.974 323.841 167.993C323.781 168.814 323.551 169.562 323.152 170.242C322.752 170.921 322.285 171.432 321.746 171.777C321.207 172.121 320.548 172.362 319.764 172.501C318.981 172.638 318.033 172.666 316.918 172.582L310.24 172.086Z" fill="#1A2E35" />
                        <path d="M327.046 173.339L328.348 155.827L330.666 156L329.363 173.512L327.046 173.339Z" fill="#1A2E35" />
                        <path d="M335.922 171.926L339.661 172.204C340.815 172.29 341.729 172.249 342.402 172.082C343.075 171.917 343.621 171.653 344.04 171.293C344.63 170.784 345.114 170.076 345.489 169.172C345.864 168.268 346.102 167.155 346.201 165.832C346.336 164.001 346.141 162.569 345.612 161.541C345.084 160.514 344.403 159.8 343.567 159.402C342.963 159.116 341.974 158.923 340.596 158.819L336.917 158.547L335.922 171.926ZM333.45 173.82L334.753 156.307L340.786 156.757C342.148 156.857 343.18 157.019 343.885 157.239C344.871 157.545 345.695 158.028 346.36 158.684C347.226 159.534 347.841 160.583 348.209 161.832C348.577 163.079 348.703 164.484 348.586 166.045C348.488 167.376 348.245 168.542 347.858 169.547C347.471 170.551 347.009 171.37 346.473 172.007C345.938 172.645 345.366 173.135 344.76 173.478C344.155 173.822 343.435 174.061 342.605 174.202C341.773 174.338 340.829 174.369 339.769 174.29L333.45 173.82Z" fill="#1A2E35" />
                        <path d="M353.587 173.237L357.326 173.514C358.48 173.6 359.394 173.559 360.067 173.393C360.74 173.228 361.287 172.964 361.705 172.603C362.296 172.094 362.779 171.386 363.154 170.482C363.53 169.578 363.767 168.465 363.866 167.142C364.001 165.311 363.806 163.88 363.277 162.852C362.75 161.824 362.068 161.111 361.232 160.712C360.629 160.427 359.639 160.233 358.261 160.13L354.582 159.857L353.587 173.237ZM351.116 175.13L352.419 157.618L358.451 158.067C359.813 158.168 360.845 158.33 361.55 158.55C362.536 158.856 363.36 159.338 364.025 159.995C364.891 160.844 365.506 161.893 365.874 163.142C366.242 164.39 366.368 165.794 366.252 167.355C366.153 168.686 365.91 169.853 365.523 170.857C365.136 171.862 364.675 172.681 364.138 173.318C363.603 173.956 363.032 174.445 362.426 174.788C361.82 175.132 361.101 175.372 360.271 175.512C359.439 175.648 358.494 175.679 357.435 175.6L351.116 175.13Z" fill="#1A2E35" />
                        <path d="M368.834 176.442L370.137 158.929L382.798 159.871L382.644 161.938L372.299 161.168L371.901 166.532L381.589 167.252L381.436 169.308L371.748 168.587L371.305 174.547L382.056 175.348L381.902 177.414L368.834 176.442Z" fill="#1A2E35" />
                        <path d="M385.075 177.65L386.378 160.138L388.754 160.315L396.93 174.748L397.953 160.999L400.174 161.164L398.872 178.677L396.495 178.5L388.32 164.055L387.296 177.815L385.075 177.65Z" fill="#1A2E35" />
                    </g>
                    <mask id="mask5_816_6437" maskUnits="userSpaceOnUse" x="0" y="1" width="512" height="512">
                        <path d="M0 1H512V513H0V1Z" fill="white" />
                    </mask>
                    <g mask="url(#mask5_816_6437)">
                        <path d="M173.998 169.847L174.336 171.857L174.725 173.992C175.004 175.417 175.278 176.852 175.6 178.27C176.223 181.108 176.949 183.913 177.767 186.631C178.178 187.99 178.62 189.326 179.109 190.619C179.578 191.921 180.079 193.196 180.636 194.401C181.741 196.823 183 199.033 184.391 200.78L181.587 198.941C182.245 199.274 182.871 199.551 183.931 199.485C184.958 199.437 186.339 199.053 187.753 198.353C189.19 197.674 190.681 196.721 192.153 195.633C192.889 195.086 193.632 194.515 194.351 193.906C194.719 193.608 195.078 193.3 195.432 192.99C195.781 192.697 196.174 192.338 196.447 192.118L196.999 191.678C198.641 190.365 201.039 190.633 202.351 192.276C203.283 193.443 203.416 194.993 202.83 196.261C202.529 196.908 202.315 197.389 202.042 197.929C201.773 198.448 201.497 198.961 201.209 199.468C200.62 200.47 199.995 201.46 199.3 202.421C197.916 204.344 196.299 206.175 194.322 207.861C193.338 208.706 192.224 209.478 191.011 210.195C189.797 210.913 188.448 211.553 186.936 211.992C185.436 212.442 183.8 212.742 182.09 212.763C180.379 212.789 178.651 212.506 177.01 212.032C176.064 211.759 175.247 211.254 174.602 210.599L174.207 210.192C171.383 207.304 169.262 204.178 167.558 201.016C165.825 197.858 164.469 194.651 163.329 191.425C162.163 188.208 161.27 184.959 160.492 181.7C160.121 180.066 159.766 178.434 159.484 176.781C159.34 175.957 159.198 175.129 159.078 174.293C158.957 173.427 158.855 172.669 158.744 171.657C158.284 167.441 161.326 163.65 165.542 163.188C169.6 162.744 173.266 165.551 173.944 169.523L173.998 169.847Z" fill="#1A2E35" />
                        <path d="M196.271 191.546C194.109 192.229 191.578 194.732 192.373 197.662C193.17 200.592 201.931 202.81 202.215 197.52C199.684 192.485 196.271 191.546 196.271 191.546Z" fill="white" />
                        <path d="M195.113 194.403L196.045 192.979L205.609 190.394C205.609 190.394 207.004 196.487 200.092 198.808C199.602 198.972 199.064 198.907 198.605 198.669L195.851 197.234C194.817 196.694 194.473 195.379 195.113 194.403Z" fill="#CE5B51" />
                        <path d="M122.963 159.464C135.193 157.25 151.761 156.825 163.771 158.879C169.877 159.924 174.184 165.468 173.646 171.639C172.956 179.535 172.084 186.507 171.629 191.981C172.174 205.863 170.99 229.067 170.99 233.918C170.989 233.922 120.112 234.638 120.112 234.638C117.846 228.296 118.588 199.744 114.615 171C113.859 165.533 117.531 160.447 122.963 159.464Z" fill="#1A2E35" />
                        <mask id="mask6_816_6437" maskUnits="userSpaceOnUse" x="148" y="172" width="3" height="62">
                            <path d="M148.069 172.428H150.386V233.976H148.069V172.428Z" fill="white" />
                        </mask>
                        <g mask="url(#mask6_816_6437)">
                            <g opacity="0.2">
                                <path d="M149.084 233.98L148.069 233.852C150.959 211.066 148.095 172.894 148.065 172.511L149.086 172.433C149.116 172.817 151.987 211.093 149.084 233.98Z" fill="black" />
                            </g>
                        </g>
                        <path d="M153.702 160.048C151.696 159.503 153.503 157.435 153.503 157.435C153.503 157.435 162.604 157.435 168.892 158.669C169.854 159.413 168.818 160.359 168.818 160.359C168.818 160.359 159.658 161.665 153.702 160.048Z" fill="currentColor" />
                        <mask id="mask7_816_6437" maskUnits="userSpaceOnUse" x="149" y="157" width="8" height="14">
                            <path d="M149.812 157.099H156.208V170.752H149.812V157.099Z" fill="white" />
                        </mask>
                        <g mask="url(#mask7_816_6437)">
                            <g opacity="0.2">
                                <path d="M150.826 157.129C150.826 157.129 153.843 163.191 149.803 168.702C153.004 168.725 155.952 170.75 155.952 170.75C155.952 170.75 157.395 165.555 153.327 157.653C152.883 156.906 150.826 157.129 150.826 157.129Z" fill="black" />
                            </g>
                        </g>
                        <path d="M154.05 160.068C154.836 163.766 147.966 170.752 147.966 170.752C147.966 170.752 135.816 164.382 135.048 160.727L154.05 160.068Z" fill="currentColor" />
                        <mask id="mask8_816_6437" maskUnits="userSpaceOnUse" x="115" y="177" width="8" height="20">
                            <path d="M115.886 177.507H122.675V196.174H115.886V177.507Z" fill="white" />
                        </mask>
                        <g mask="url(#mask8_816_6437)">
                            <g opacity="0.2">
                                <path d="M122.225 177.507C123.56 180.082 121.936 190.869 117.117 196.174C116.796 191.488 116.403 186.588 115.886 181.592L122.225 177.507Z" fill="black" />
                            </g>
                        </g>
                        <path d="M136.355 141.104L150.125 147.707C148.662 151.606 147.968 155.661 152.047 157.595C154.359 158.693 155.414 161.712 154.037 164.006C152.858 165.973 150.861 167.685 147.771 167.993C142.993 168.471 138.283 165.402 135.542 162.519C134.411 161.329 135.52 159.939 135.666 158.282C136.183 152.423 137.098 146.289 136.355 141.104Z" fill="#CE5B51" />
                        <mask id="mask9_816_6437" maskUnits="userSpaceOnUse" x="141" y="142" width="10" height="10">
                            <path d="M141.18 142.414H150.12V151.261H141.18V142.414Z" fill="white" />
                        </mask>
                        <g mask="url(#mask9_816_6437)">
                            <g opacity="0.2">
                                <path d="M142.695 142.414L150.12 147.698C149.694 148.82 149.34 149.953 149.152 151.047C146.104 152.044 141.26 149.385 141.181 146.73C141.141 145.407 142.385 143.051 142.695 142.414Z" fill="black" />
                            </g>
                        </g>
                        <path d="M152.34 118.852C154.966 120.992 157.972 130.559 154.113 134.423C148.415 127.809 147.773 117.861 152.34 118.852Z" fill="#1A2E35" />
                        <path d="M132.547 129.922C133.587 138.085 133.779 142.919 138.2 146.82C144.848 152.687 154.731 148.179 156.155 139.847C157.435 132.349 155.52 120.258 147.274 117.593C139.149 114.966 131.506 121.758 132.547 129.922Z" fill="#CE5B51" />
                        <path d="M132.802 136.967C136.669 137.256 138.016 127.898 135.603 122.604C137.283 123.301 142.067 122.617 143.403 120.42C151.116 122.617 154.003 122.66 154.994 119.472C155.985 116.283 143.834 113.481 136.81 114.99C129.785 116.498 131.854 121.583 131.854 121.583C131.854 121.583 119.96 125.418 132.802 136.967Z" fill="#1A2E35" />
                        <path d="M129.976 137.591C131.153 139.446 132.933 140.594 134.518 140.974C136.901 141.544 137.726 139.148 136.757 136.743C135.885 134.578 133.593 131.673 131.349 132.18C129.137 132.679 128.632 135.473 129.976 137.591Z" fill="#CE5B51" />
                        <path d="M143.463 131.294C143.506 131.96 143.896 132.475 144.332 132.444C144.77 132.411 145.088 131.844 145.044 131.176C145.001 130.507 144.612 129.992 144.175 130.026C143.738 130.058 143.419 130.626 143.463 131.294Z" fill="#1A2E35" />
                        <path d="M152.515 130.556C152.559 131.224 152.948 131.739 153.385 131.706C153.821 131.675 154.14 131.106 154.097 130.439C154.053 129.771 153.664 129.256 153.226 129.289C152.79 129.32 152.472 129.889 152.515 130.556Z" fill="#1A2E35" />
                        <path d="M151.051 131.242C151.051 131.242 152.822 134.981 154.616 136.716C153.506 137.906 151.463 137.551 151.463 137.551L151.051 131.242Z" fill="#BB221F" />
                        <path d="M146.903 126.01C146.948 126.058 146.981 126.118 146.997 126.185C147.048 126.396 146.917 126.607 146.705 126.657C144.579 127.161 143.242 125.934 143.186 125.881C143.027 125.732 143.021 125.485 143.171 125.328C143.321 125.171 143.57 125.164 143.727 125.311C143.771 125.352 144.825 126.298 146.521 125.896C146.665 125.862 146.809 125.91 146.903 126.01Z" fill="#1A2E35" />
                        <path d="M148.562 127.945C148.505 127.913 148.456 127.866 148.42 127.806C148.308 127.622 148.37 127.38 148.557 127.268C150.434 126.15 152.078 126.92 152.147 126.954C152.343 127.048 152.424 127.283 152.328 127.477C152.231 127.671 151.996 127.754 151.801 127.659C151.747 127.634 150.458 127.047 148.961 127.94C148.834 128.015 148.682 128.012 148.562 127.945Z" fill="#1A2E35" />
                        <path d="M156.232 124.228C156.11 124.266 155.973 124.245 155.868 124.158C154.536 123.056 153.177 123.455 153.12 123.473C152.913 123.537 152.694 123.421 152.631 123.214C152.569 123.008 152.683 122.787 152.89 122.721C152.965 122.699 154.7 122.167 156.37 123.547C156.536 123.684 156.559 123.933 156.42 124.101C156.369 124.164 156.303 124.207 156.232 124.228Z" fill="#1A2E35" />
                        <path d="M200.868 226.239C200.422 225.413 199.381 225.102 198.555 225.549L186.028 232.318L180.107 221.363C179.661 220.538 178.62 220.227 177.794 220.672C176.968 221.12 176.658 222.16 177.104 222.986L183.025 233.941L139.856 257.271C139.031 257.717 138.719 258.758 139.166 259.583C139.612 260.41 140.653 260.72 141.479 260.274L200.178 228.552C201.004 228.106 201.315 227.065 200.868 226.239Z" fill="#1A2E35" />
                        <path d="M199.947 283.808C179.488 268.446 116.418 262.26 138.209 234.219L170.983 233.913C170.983 233.913 217.107 257.574 219.577 282.315C222.147 308.04 226.708 348.561 226.708 348.561L214.013 353.068C214.013 353.068 195.476 303.384 199.947 283.808Z" fill="currentColor" />
                        <mask id="mask10_816_6437" maskUnits="userSpaceOnUse" x="137" y="248" width="27" height="20">
                            <path d="M137.236 248.296H163.284V267.863H137.236V248.296Z" fill="white" />
                        </mask>
                        <g mask="url(#mask10_816_6437)">
                            <g opacity="0.2">
                                <path d="M139.345 248.296C138.587 249.946 137.886 251.675 137.243 253.479C142.341 259.269 152.402 263.723 163.29 267.861C159.968 261.919 152.527 255.372 139.345 248.296Z" fill="black" />
                            </g>
                        </g>
                        <path d="M214.148 357.567L227.273 354.186C228.075 353.977 228.986 353.949 229.781 354.308C234.367 356.376 237.301 355.763 241.832 355.48C247.265 355.14 246.041 360.972 242.23 361.965C235.924 363.608 236.39 363.248 231.014 364.649C229.8 364.966 227.282 365.611 227.282 365.611L225.148 364.309L224.101 366.387C224.101 366.387 219.956 367.398 217.192 368.072C216.427 368.259 215.658 367.777 215.543 367L214.148 357.567Z" fill="#1A2E35" />
                        <path d="M214.487 358.857C214.679 358.766 229.453 354.63 229.453 354.63L227.164 343.272L210.744 347.72L214.487 358.857Z" fill="#1A2E35" />
                        <path d="M122.645 318.256C123.265 280.943 115.429 242.966 120.11 234.632L158.12 234.095C158.12 234.095 146.759 296.301 143.757 321.155C140.64 346.997 125.322 414.195 125.322 414.195L113.065 414.386C113.065 414.386 114.514 345.039 122.645 318.256Z" fill="currentColor" />
                        <path d="M112.609 416.368L123.892 416.193C124.719 416.179 125.617 416.368 126.32 416.905C130.373 420.001 130.848 420.102 135.339 420.899C140.724 421.857 138.305 427.232 134.367 427.294C127.855 427.397 128.386 427.157 122.834 427.244C121.58 427.265 116.803 427.294 116.803 427.294L115.924 425.524L114.935 427.294H113.347C112.575 427.294 111.946 426.626 111.995 425.859L112.609 416.368Z" fill="#1A2E35" />
                        <path d="M112.558 417.707C112.749 417.664 126.738 418.354 126.738 418.354L127.668 405.569L112.468 406L112.558 417.707Z" fill="#1A2E35" />
                        <path d="M150.323 156.402C150.323 156.402 153.841 163.193 149.802 168.705C153.003 168.727 156.508 170.095 156.508 170.095C156.508 170.095 159.361 163.186 153.067 157.002C152.623 156.255 150.323 156.402 150.323 156.402Z" fill="white" />
                        <path d="M118.712 238.547C136.886 239.636 157.729 239.97 170.761 238.546C170.906 238.531 171.037 238.434 171.12 238.263C171.936 236.588 172.336 233.71 172.243 231.31C172.229 230.94 172.004 230.664 171.748 230.674C154.547 231.341 137.453 231.307 119.483 230.668C119.281 230.661 119.092 230.834 119.017 231.105C118.443 233.209 118.138 235.494 118.246 237.896C118.263 238.25 118.467 238.533 118.712 238.547Z" fill="#1A2E35" />
                        <mask id="mask11_816_6437" maskUnits="userSpaceOnUse" x="118" y="230" width="55" height="10">
                            <path d="M118.231 230.663H172.263V239.489H118.231V230.663Z" fill="white" />
                        </mask>
                        <g mask="url(#mask11_816_6437)">
                            <g opacity="0.2">
                                <path d="M118.713 238.547C136.887 239.636 157.73 239.97 170.762 238.546C170.906 238.531 171.038 238.434 171.12 238.263C171.937 236.588 172.337 233.71 172.244 231.31C172.229 230.94 172.005 230.664 171.749 230.674C154.548 231.341 137.454 231.307 119.484 230.668C119.282 230.661 119.093 230.834 119.018 231.105C118.444 233.209 118.139 235.494 118.247 237.896C118.264 238.25 118.468 238.533 118.713 238.547Z" fill="black" />
                            </g>
                        </g>
                        <path d="M147.005 239.182C148.499 239.317 150.915 239.423 152.487 239.084C152.815 236.419 152.788 232.922 152.752 231.274C151.569 231.229 149.399 231.191 147.124 231.373C146.966 234.321 146.984 237.628 147.005 239.182ZM149.716 241.358C147.749 241.358 145.991 241.136 145.867 241.121L144.995 241.007L144.974 240.13C144.969 239.906 144.843 234.616 145.134 230.366L145.192 229.508L146.047 229.418C149.913 229.008 153.663 229.266 153.821 229.278L154.734 229.344L154.77 230.257C154.781 230.5 155.009 236.26 154.421 240.047L154.327 240.652L153.751 240.856C152.652 241.244 151.129 241.358 149.716 241.358Z" fill="white" />
                        <path d="M129.966 230.642C129.966 230.642 129.67 236.385 129.254 240.042C128.443 240.878 126.932 240.238 126.932 240.238C126.932 240.238 127.233 234.929 127.592 230.761C128.808 230.371 129.966 230.642 129.966 230.642Z" fill="currentColor" />
                        <path d="M167.485 230.642C167.485 230.642 167.189 236.385 166.774 240.042C165.963 240.878 164.451 240.238 164.451 240.238C164.451 240.238 164.752 234.929 165.112 230.761C166.327 230.371 167.485 230.642 167.485 230.642Z" fill="currentColor" />
                        <path d="M155.607 178.797C156.159 186.201 160.88 187.868 161.543 187.854C162.204 187.84 166.663 185.985 166.112 178.58C164.228 178.632 162.443 177.816 160.702 176.581C159.254 177.995 157.576 178.786 155.607 178.797Z" fill="currentColor" />
                        <path d="M154.624 118.176C159.887 119.058 161.873 121.511 150.019 122.947C138.166 124.384 129.377 123.294 129.377 123.294C129.377 123.294 145.18 118.132 154.624 118.176Z" fill="#1A2E35" />
                        <path d="M128.431 123.911C128.431 123.911 138.741 120.422 154.99 118.522C155.258 115.248 152.7 112.855 152.7 112.855C152.7 112.855 158.7 111.78 155.72 110.037C153.676 108.842 148.779 108.708 143.366 105.226C141.147 107.253 135.059 110.545 130.904 110.967C129.874 112.728 127.19 117.136 122.838 118.839C122.9 120.761 127.228 121.258 127.228 121.258C127.228 121.258 127.024 122.553 128.431 123.911Z" fill="currentColor" />
                        <mask id="mask12_816_6437" maskUnits="userSpaceOnUse" x="127" y="112" width="29" height="12">
                            <path d="M127.212 112.852H155.004V123.907H127.212V112.852Z" fill="white" />
                        </mask>
                        <g mask="url(#mask12_816_6437)">
                            <g opacity="0.8">
                                <path d="M127.222 121.259C136.038 115.533 144.493 113.05 152.694 112.856C152.694 112.856 155.252 115.248 154.986 118.523C138.735 120.422 128.425 123.911 128.425 123.911C127.018 122.553 127.222 121.259 127.222 121.259Z" fill="#1A2E35" />
                            </g>
                        </g>
                        <path d="M142.858 111.295C143.875 116.33 147.436 117.249 147.914 117.209C148.393 117.168 151.469 115.691 150.452 110.655C149.093 110.779 147.731 110.305 146.367 109.542C145.435 110.575 144.284 111.195 142.858 111.295Z" fill="white" />
                        <path d="M148.838 127.024C150.008 127.188 151.922 135.973 145.821 136.445C140.694 136.84 139.097 132.139 139.096 130.499C139.095 128.042 147.186 126.791 148.838 127.024Z" fill="#1A2E35" />
                        <path d="M151.418 126.921C150.691 127.365 152.321 136.722 156.583 135.737C160.165 134.91 159.563 129.821 158.979 128.18C158.106 125.718 152.444 126.296 151.418 126.921Z" fill="#1A2E35" />
                        <mask id="mask13_816_6437" maskUnits="userSpaceOnUse" x="140" y="126" width="20" height="11">
                            <path d="M140.81 126.368H159.404V136.467H140.81V126.368Z" fill="white" />
                        </mask>
                        <g mask="url(#mask13_816_6437)">
                            <g opacity="0.2">
                                <path d="M146.678 127.116L149.864 132.917C149.595 134.024 149.057 135.038 148.106 135.689L143.711 127.653C144.734 127.405 145.79 127.22 146.678 127.116Z" fill="white" />
                                <path d="M142.419 128.017L146.928 136.249C146.596 136.353 146.225 136.414 145.821 136.445C145.562 136.467 145.325 136.477 145.087 136.467L140.805 128.658C141.281 128.421 141.829 128.213 142.419 128.017Z" fill="white" />
                                <path d="M156.58 126.552L159.403 131.702C159.341 132.591 159.145 133.482 158.699 134.206L154.418 126.375C155.142 126.365 155.897 126.417 156.58 126.552Z" fill="white" />
                                <path d="M158.147 134.908C157.899 135.156 157.599 135.363 157.237 135.519L152.355 126.604C152.686 126.531 153.069 126.48 153.493 126.429L158.147 134.908Z" fill="white" />
                            </g>
                        </g>
                        <path d="M204.576 189.047L185.77 196.935L185.108 195.358L204.489 187.229L204.576 189.047ZM134.806 225.692C132.703 226.575 130.297 225.627 129.324 223.588L129.953 222.887L130.271 222.753C130.548 223.116 130.854 223.458 131.222 223.747C132.357 224.636 133.77 225.031 135.201 224.858L135.065 223.729C133.934 223.868 132.819 223.556 131.922 222.853C131.71 222.687 131.519 222.5 131.345 222.303L136.992 219.934C137.02 219.997 137.061 220.049 137.088 220.114C137.997 222.28 136.974 224.783 134.806 225.692ZM214.069 183.211C214.597 182.989 213.718 180.895 213.192 181.117L141.578 211.155C141.398 210.882 141.055 210.758 140.743 210.889L137.747 212.147C137.435 212.277 137.284 212.609 137.351 212.927L127.937 216.877C125.83 217.76 123.946 219.103 122.421 220.806L118.206 225.515C118.045 227.78 116.133 229.518 113.864 229.465L113.236 229.45L91.5896 242.549C89.9584 243.537 89.1668 245.48 89.643 247.327C90.5738 250.936 91.8589 253.831 93.4113 256.184C94.8879 258.423 98.0521 258.745 99.9874 256.885L121.904 235.827C122.829 234.937 123.406 233.746 123.531 232.469L123.796 229.767L128.525 224.482C129.872 226.777 132.728 227.796 135.246 226.74C137.99 225.589 139.286 222.42 138.136 219.674C138.109 219.611 138.067 219.558 138.038 219.495L139.791 218.761C139.966 219.049 140.322 219.182 140.642 219.048L143.637 217.791C143.958 217.656 144.111 217.31 144.029 216.982L185.796 199.464C186.281 199.26 186.51 198.701 186.307 198.214L208.827 188.769C209.177 188.622 208.64 187.342 208.291 187.49L206.626 188.187L206.539 186.37L214.069 183.211Z" fill="currentColor" />
                        <mask id="mask14_816_6437" maskUnits="userSpaceOnUse" x="89" y="181" width="126" height="78">
                            <path d="M89.5 181.101H214.223V258.097H89.5V181.101Z" fill="white" />
                        </mask>
                        <g mask="url(#mask14_816_6437)">
                            <g opacity="0.2">
                                <path d="M204.576 189.047L185.77 196.935L185.108 195.358L204.489 187.229L204.576 189.047ZM134.806 225.692C132.703 226.575 130.297 225.627 129.324 223.588L129.953 222.886L130.271 222.753C130.548 223.116 130.854 223.458 131.222 223.746C132.357 224.635 133.77 225.031 135.201 224.858L135.065 223.729C133.934 223.867 132.819 223.556 131.922 222.853C131.71 222.687 131.519 222.5 131.345 222.303L136.992 219.934C137.02 219.997 137.061 220.049 137.088 220.113C137.997 222.28 136.974 224.783 134.806 225.692ZM214.069 183.21C214.597 182.989 213.718 180.895 213.192 181.116L141.578 211.154C141.398 210.882 141.055 210.758 140.743 210.889L137.747 212.147C137.435 212.277 137.284 212.608 137.351 212.927L127.937 216.876C125.83 217.76 123.946 219.103 122.421 220.806L118.206 225.515C118.045 227.78 116.133 229.518 113.864 229.464L113.236 229.45L91.5896 242.549C89.9584 243.536 89.1668 245.48 89.643 247.327C90.5738 250.936 91.8589 253.831 93.4113 256.184C94.8879 258.423 98.0521 258.745 99.9874 256.885L121.904 235.827C122.829 234.937 123.406 233.746 123.531 232.469L123.796 229.767L128.525 224.482C129.872 226.776 132.728 227.795 135.246 226.74C137.99 225.589 139.286 222.419 138.136 219.674C138.109 219.611 138.067 219.557 138.038 219.495L139.791 218.761C139.966 219.048 140.322 219.181 140.642 219.047L143.637 217.791C143.958 217.656 144.111 217.31 144.029 216.982L185.796 199.463C186.281 199.26 186.51 198.7 186.307 198.214L208.827 188.769C209.177 188.622 208.64 187.342 208.291 187.49L206.626 188.187L206.539 186.369L214.069 183.21Z" fill="black" />
                            </g>
                        </g>
                        <path d="M186.439 195.181L166.599 203.503C165.911 203.791 165.57 204.567 165.823 205.269L166.635 207.522C166.906 208.277 167.754 208.649 168.493 208.339L188.334 200.017C189.021 199.729 189.362 198.952 189.109 198.251L188.297 195.998C188.026 195.243 187.178 194.871 186.439 195.181Z" fill="currentColor" />
                        <path d="M199.065 187.419L199.748 187.234C201.519 186.753 203.41 187.325 204.617 188.708L205.227 189.406C205.928 190.21 205.633 191.466 204.646 191.873L197.897 194.655C197.088 194.988 196.163 194.591 195.848 193.775C194.824 191.121 196.32 188.165 199.065 187.419Z" fill="#CE5B51" />
                        <path d="M127.59 173.288L127.077 173.898L126.484 174.625L125.273 176.132C124.473 177.164 123.665 178.206 122.877 179.269C121.298 181.397 119.772 183.588 118.303 185.817C116.799 188.028 115.45 190.337 114.056 192.627C112.723 194.947 111.436 197.299 110.218 199.687L109.315 201.485L109.094 201.923C109.072 201.973 109.047 202.022 109.019 202.07C108.953 202.151 108.903 202.284 108.852 202.425C108.64 202.975 108.445 203.823 108.381 204.808C108.251 206.793 108.501 209.251 108.97 211.733C109.884 216.723 111.61 222.071 113.33 227.16L113.395 227.353C114.075 229.362 112.997 231.542 110.987 232.222C109.406 232.756 107.716 232.197 106.737 230.958C104.794 228.488 103.194 226.043 101.664 223.397C100.152 220.766 98.7901 218.015 97.6463 215.047C96.5291 212.067 95.5533 208.913 95.2481 205.196C95.1017 203.34 95.0945 201.319 95.5707 199.104C95.6854 198.552 95.8185 197.996 96.0202 197.415L96.308 196.56L96.5158 196.02L97.3371 193.91C99.5479 188.286 102.257 182.87 105.37 177.684C106.938 175.096 108.582 172.551 110.386 170.096C111.287 168.867 112.208 167.646 113.181 166.451C113.678 165.854 114.155 165.251 114.684 164.659L115.479 163.763L116.388 162.78C119.263 159.667 124.117 159.475 127.23 162.351C130.249 165.141 130.521 169.793 127.908 172.911L127.59 173.288Z" fill="#1A2E35" />
                        <path d="M135.608 160.836C137.662 160.109 135.053 157.914 135.053 157.914C135.053 157.914 124.195 158.247 117.738 159.957C116.773 160.883 117.887 161.979 117.887 161.979C117.887 161.979 129.511 162.994 135.608 160.836Z" fill="currentColor" />
                        <mask id="mask15_816_6437" maskUnits="userSpaceOnUse" x="133" y="157" width="12" height="15">
                            <path d="M133.57 157.651H144.367V171.906H133.57V157.651Z" fill="white" />
                        </mask>
                        <g mask="url(#mask15_816_6437)">
                            <g opacity="0.2">
                                <path d="M135.445 157.713C135.445 157.713 137.047 163.769 144.365 168.716C141.163 168.739 136.643 171.911 136.643 171.911C136.643 171.911 132.385 166.556 133.889 158.167C134.334 157.42 135.445 157.713 135.445 157.713Z" fill="black" />
                            </g>
                        </g>
                        <path d="M135.66 156.607C135.66 156.607 137.562 163.168 144.367 168.706C141.166 168.73 136.393 170.301 136.393 170.301C136.393 170.301 132.388 166.547 133.891 158.158C134.337 157.411 135.66 156.607 135.66 156.607Z" fill="white" />
                        <path d="M112.251 226.7L118.62 232.178L110.173 237.669C110.173 237.669 105.009 232.009 107.573 228.779L112.251 226.7Z" fill="#CE5B51" />
                        <path d="M106.691 231.318C106.691 231.318 105.368 230.271 104.964 229.066C106.99 226.966 111.086 225.239 112.942 224.769C114.072 225.836 114.115 228.043 114.115 228.043C114.115 228.043 108.718 228.971 106.691 231.318Z" fill="white" />
                        <path d="M119.337 240.872L116.052 242.297C114.744 242.864 113.218 242.401 112.446 241.203L110.169 237.667L118.615 232.176L120.824 236.987C121.505 238.47 120.834 240.223 119.337 240.872Z" fill="#CE5B51" />
                        <path d="M144.906 140.295C144.907 140.294 144.909 140.293 144.911 140.292C148.435 138.119 151.541 139.539 151.671 139.6C151.8 139.662 151.854 139.815 151.794 139.944C151.733 140.073 151.58 140.129 151.451 140.067C151.421 140.055 148.46 138.711 145.183 140.732C145.061 140.807 144.901 140.769 144.826 140.648C144.753 140.528 144.789 140.37 144.906 140.295Z" fill="#1A2E35" />
                        <path d="M128.153 178.674L141.96 178.147L141.912 177.032L128.104 177.559L128.153 178.674Z" fill="white" />
                    </g>
                    <mask id="mask16_816_6437" maskUnits="userSpaceOnUse" x="0" y="1" width="512" height="512">
                        <path d="M0 1H512V513H0V1Z" fill="white" />
                    </mask>
                    <g mask="url(#mask16_816_6437)">
                        <mask id="mask17_816_6437" maskUnits="userSpaceOnUse" x="220" y="273" width="48" height="156">
                            <path d="M220.876 273.671H267.181V428.469H220.876V273.671Z" fill="white" />
                        </mask>
                        <g mask="url(#mask17_816_6437)">
                            <g opacity="0.39999">
                                <path d="M247.694 428.477H220.879L240.37 273.669H267.185L247.694 428.477Z" fill="black" />
                            </g>
                        </g>
                    </g>
                    <mask id="mask18_816_6437" maskUnits="userSpaceOnUse" x="0" y="1" width="512" height="512">
                        <path d="M0 1H512V513H0V1Z" fill="white" />
                    </mask>
                    <g mask="url(#mask18_816_6437)">
                        <mask id="mask19_816_6437" maskUnits="userSpaceOnUse" x="320" y="273" width="48" height="156">
                            <path d="M320.871 273.671H367.177V428.469H320.871V273.671Z" fill="white" />
                        </mask>
                        <g mask="url(#mask19_816_6437)">
                            <g opacity="0.39999">
                                <path d="M347.678 428.477H320.862L340.353 273.669H367.169L347.678 428.477Z" fill="black" />
                            </g>
                        </g>
                    </g>
                    <mask id="mask20_816_6437" maskUnits="userSpaceOnUse" x="0" y="1" width="512" height="512">
                        <path d="M0 1H512V513H0V1Z" fill="white" />
                    </mask>
                    <g mask="url(#mask20_816_6437)">
                        <mask id="mask21_816_6437" maskUnits="userSpaceOnUse" x="342" y="289" width="36" height="65">
                            <path d="M342.938 289.44H377.847V353.726H342.938V289.44Z" fill="white" />
                        </mask>
                        <g mask="url(#mask21_816_6437)">
                            <g opacity="0.2">
                                <path d="M349.635 342.637L377.846 353.721L369.752 289.435H342.936L349.635 342.637Z" fill="black" />
                            </g>
                        </g>
                    </g>
                    <mask id="mask22_816_6437" maskUnits="userSpaceOnUse" x="0" y="1" width="512" height="512">
                        <path d="M0 1H512V513H0V1Z" fill="white" />
                    </mask>
                    <g mask="url(#mask22_816_6437)">
                        <mask id="mask23_816_6437" maskUnits="userSpaceOnUse" x="242" y="289" width="36" height="65">
                            <path d="M242.944 289.44H277.854V353.726H242.944V289.44Z" fill="white" />
                        </mask>
                        <g mask="url(#mask23_816_6437)">
                            <g opacity="0.2">
                                <path d="M249.64 342.637L277.852 353.721L269.758 289.435H242.941L249.64 342.637Z" fill="black" />
                            </g>
                        </g>
                    </g>
                    <path d="M0 392.834H512V392.579H0V392.834Z" fill="#ECECEC" />
                    <path d="M53.7178 402.582H87.6347V402.326H53.7178V402.582Z" fill="#ECECEC" />
                    <path d="M148.817 399.807H184.146V399.551H148.817V399.807Z" fill="#ECECEC" />
                    <path d="M77.9082 407.528H134.655V407.272H77.9082V407.528Z" fill="#ECECEC" />
                    <path d="M415.375 408.47H459.606V408.215H415.375V408.47Z" fill="#ECECEC" />
                    <path d="M379.32 402.07H402.773V401.814H379.32V402.07Z" fill="#ECECEC" />
                    <path d="M200.325 406.176H296.249V405.92H200.325V406.176Z" fill="#ECECEC" />
                    <path d="M247.694 428.477H220.879L240.37 273.669H267.185L247.694 428.477Z" fill="currentColor" />
                    <path d="M218.48 428.477H220.879L240.368 273.669H237.971L218.48 428.477Z" fill="#1A2E35" />
                    <path d="M347.678 428.477H320.862L340.353 273.669H367.169L347.678 428.477Z" fill="currentColor" />
                    <path d="M318.474 428.477H320.872L340.362 273.669H337.964L318.474 428.477Z" fill="#1A2E35" />
                    <path d="M272.507 410.057H369.746L365.504 376.363H268.265L272.507 410.057Z" fill="currentColor" />
                    <path d="M272.507 410.057H270.914L266.672 376.363H268.264L272.507 410.057Z" fill="#1A2E35" />
                    <path d="M364.39 377.832L368.262 408.585H362.516L347.089 377.832H364.39Z" fill="white" />
                    <path d="M337.285 377.832L352.713 408.585H331.614L316.187 377.832H337.285Z" fill="white" />
                    <path d="M306.39 377.832L321.818 408.585H300.72L285.292 377.832H306.39Z" fill="white" />
                    <path d="M275.508 377.832L290.935 408.585H273.628L269.756 377.832H275.508Z" fill="white" />
                    <path d="M360.438 428.477H387.254L367.763 273.669H340.947L360.438 428.477Z" fill="currentColor" />
                    <path d="M360.438 428.477H358.04L338.549 273.669H340.947L360.438 428.477Z" fill="#1A2E35" />
                    <path d="M260.444 428.477H287.259L267.769 273.669H240.953L260.444 428.477Z" fill="currentColor" />
                    <path d="M260.444 428.477H258.046L238.556 273.669H240.953L260.444 428.477Z" fill="#1A2E35" />
                    <path d="M238.931 335.5H385.352L378.965 284.761H232.543L238.931 335.5Z" fill="currentColor" />
                    <path d="M238.93 335.5H236.532L230.145 284.761H232.542L238.93 335.5Z" fill="#1A2E35" />
                    <path d="M377.283 286.973L383.114 333.281H374.462L351.23 286.973H377.283Z" fill="white" />
                    <path d="M336.477 286.973L359.708 333.281H327.938L304.706 286.973H336.477Z" fill="white" />
                    <path d="M289.956 286.973L313.188 333.281H281.417L258.185 286.973H289.956Z" fill="white" />
                    <path d="M243.446 286.973L266.678 333.281H240.616L234.785 286.973H243.446Z" fill="white" />
                </svg>