<svg width="30" height="30" viewBox="0 0 30 30" fill="none" xmlns="http://www.w3.org/2000/svg">
<rect width="30" height="30" rx="15" fill="#DC2626"/>
<path d="M16.6577 6.54545L16.3764 18.8693H13.6321L13.3594 6.54545H16.6577ZM15.0043 24.1875C14.4872 24.1875 14.044 24.0057 13.6747 23.642C13.3111 23.2784 13.1293 22.8352 13.1293 22.3125C13.1293 21.8011 13.3111 21.3636 13.6747 21C14.044 20.6364 14.4872 20.4545 15.0043 20.4545C15.5099 20.4545 15.9474 20.6364 16.3168 21C16.6918 21.3636 16.8793 21.8011 16.8793 22.3125C16.8793 22.6591 16.7912 22.9744 16.6151 23.2585C16.4446 23.5426 16.2173 23.7699 15.9332 23.9403C15.6548 24.1051 15.3452 24.1875 15.0043 24.1875Z" fill="white"/>
</svg>
