<svg width="12" height="12" viewBox="0 0 12 12" fill="none" xmlns="http://www.w3.org/2000/svg">
  <defs>
    <linearGradient id="goldToGrey" x1="0%" y1="0%" x2="100%" y2="0%">
      <stop offset="0%" style="stop-color: #F28C3A" />
      <stop offset="50%" style="stop-color: #F28C3A" />
      <stop offset="50%" style="stop-color: lightgrey" />
      <stop offset="100%" style="stop-color: lightgrey" />
    </linearGradient>
  </defs>
  <path d="M11.9014 4.73253C11.9014 4.83074 11.8434 4.93788 11.7273 5.05396L9.29649 7.42449L9.87238 10.7727C9.87685 10.804 9.87908 10.8486 9.87908 10.9066C9.87908 11.0004 9.85564 11.0796 9.80877 11.1444C9.76189 11.2091 9.69381 11.2415 9.60453 11.2415C9.51971 11.2415 9.43042 11.2147 9.33667 11.1611L6.32997 9.58074L3.32328 11.1611C3.22506 11.2147 3.13578 11.2415 3.05542 11.2415C2.96167 11.2415 2.89136 11.2091 2.84448 11.1444C2.79761 11.0796 2.77417 11.0004 2.77417 10.9066C2.77417 10.8798 2.77863 10.8352 2.78756 10.7727L3.36346 7.42449L0.925956 5.05396C0.814348 4.93342 0.758545 4.82628 0.758545 4.73253C0.758545 4.56735 0.883545 4.46467 1.13354 4.42449L4.49515 3.93565L6.00185 0.888777C6.08667 0.705741 6.19604 0.614223 6.32997 0.614223C6.4639 0.614223 6.57328 0.705741 6.6581 0.888777L8.16479 3.93565L11.5264 4.42449C11.7764 4.46467 11.9014 4.56735 11.9014 4.73253Z" fill="url(#goldToGrey)"/>
</svg>
