<svg width="22" height="22" viewBox="0 0 22 22" fill="currentColor" xmlns="http://www.w3.org/2000/svg">
<g clip-path="url(#clip0_145_1608)">
<path d="M10.9003 11.8972L15.0253 14.9909C15.3292 15.2188 15.7599 15.1573 15.9878 14.8534C16.2157 14.5496 16.1542 14.1188 15.8503 13.8909L12.0313 11V5.15625C12.0313 4.77641 11.7236 4.46875 11.3438 4.46875C10.9639 4.46875 10.6562 4.77641 10.6562 5.15625V11.3438C10.6562 11.572 10.7518 11.7776 10.9003 11.8972Z" fill="currentColor"/>
<path d="M11.6875 0.6875C6.65538 0.6875 2.35816 4.31956 1.51941 9.28125L1.25816 8.89281C1.04538 8.57759 0.617756 8.49441 0.302537 8.70719C-0.0126814 8.91997 -0.0958689 9.34759 0.116912 9.66281L1.49191 11.7253C1.60501 11.8972 1.78926 12.0096 1.99379 12.0312H2.06254C2.24472 12.0306 2.41901 11.9577 2.54722 11.8284L4.26597 10.1097C4.53444 9.84122 4.53444 9.40534 4.26597 9.13688C3.99751 8.86841 3.56163 8.86841 3.29316 9.13688L2.86691 9.56656C3.65857 4.69425 8.25004 1.38669 13.122 2.17834C17.994 2.97 21.3022 7.56112 20.5106 12.4334C19.8076 16.7599 16.0707 19.9382 11.6875 19.9375C8.9231 19.9877 6.30854 18.6835 4.68535 16.445C4.46501 16.1356 4.03566 16.0631 3.72629 16.2834C3.41691 16.5038 3.34438 16.9331 3.56472 17.2425C5.44435 19.8454 8.4776 21.3651 11.6875 21.3125C17.3831 21.3125 22 16.6956 22 11C22 5.30441 17.3831 0.6875 11.6875 0.6875Z" fill="currentColor"/>
</g>
<defs>
<clipPath id="clip0_145_1608">
<rect width="22" height="22" fill="white"/>
</clipPath>
</defs>
</svg>
