<svg width="25" height="25" viewBox="0 0 38 38" fill="none" xmlns="http://www.w3.org/2000/svg">
    <path d="M34.042 6.33325H19.0002C18.9153 6.33325 18.8309 6.34661 18.75 6.37281L18.56 6.43612C18.1452 6.57417 17.9207 7.02237 18.0588 7.43718C18.0596 7.4397 18.0605 7.44215 18.0613 7.44468L26.0191 30.6991L20.7783 36.6873C20.4906 37.0165 20.5243 37.5167 20.8535 37.8044C20.9979 37.9306 21.1833 38.0001 21.3752 37.9998H34.0419C36.2281 37.9999 38.0003 36.2277 38.0003 34.0416V10.2916C38.0003 8.10545 36.2281 6.33325 34.042 6.33325Z" fill="#ECEFF1" />
    <path d="M27.6373 30.5472C27.5088 30.2647 27.2271 30.0833 26.9168 30.0833H19.0002C18.563 30.0833 18.2085 30.4377 18.2085 30.8749C18.2085 30.9701 18.2256 31.0645 18.2592 31.1536L20.6342 37.4869C20.7322 37.7477 20.9602 37.9377 21.2343 37.9872C21.2808 37.9953 21.3279 37.9995 21.3752 37.9999C21.6034 37.9997 21.8204 37.901 21.9705 37.7292L27.5122 31.3959C27.7168 31.162 27.7657 30.8301 27.6373 30.5472Z" fill="#1976D2" />
    <path d="M34.0416 17.4166H22.9582C22.521 17.4166 22.1665 17.0622 22.1665 16.6249C22.1665 16.1877 22.521 15.8333 22.9582 15.8333H34.0415C34.4787 15.8333 34.8332 16.1877 34.8332 16.6249C34.8332 17.0622 34.4788 17.4166 34.0416 17.4166Z" fill="#455A64" />
    <path d="M27.7082 17.4167C27.271 17.4167 26.9165 17.0622 26.9165 16.625V15.0417C26.9165 14.6045 27.271 14.25 27.7082 14.25C28.1454 14.25 28.4999 14.6045 28.4999 15.0417V16.625C28.4999 17.0622 28.1454 17.4167 27.7082 17.4167Z" fill="#455A64" />
    <path d="M25.3334 26.9166C24.8962 26.9163 24.542 26.5615 24.5425 26.1243C24.5427 25.8687 24.6663 25.629 24.8743 25.4806C28.3418 23.0169 30.8751 17.9945 30.8751 16.6249C30.8751 16.1877 31.2296 15.8333 31.6668 15.8333C32.104 15.8333 32.4585 16.1877 32.4585 16.6249C32.4585 18.7118 29.4075 24.2027 25.7927 26.7694C25.6586 26.865 25.4981 26.9165 25.3334 26.9166Z" fill="#455A64" />
    <path d="M31.6665 28.4999C31.4684 28.5001 31.2776 28.4261 31.1313 28.2925C30.5582 27.7668 25.4978 23.0928 24.6001 20.8809C24.4352 20.4756 24.6302 20.0135 25.0355 19.8486C25.4408 19.6838 25.903 19.8787 26.0678 20.2841C26.7154 21.8801 30.7165 25.7624 32.2033 27.1225C32.5268 27.4165 32.5507 27.9172 32.2567 28.2408C32.1056 28.4069 31.891 28.5011 31.6665 28.4999Z" fill="#455A64" />
    <path d="M27.6656 30.6185L17.374 0.535191C17.2644 0.215086 16.9634 0 16.625 0H3.95832C1.7722 0 0 1.77219 0 3.95831V27.7083C0 29.8944 1.7722 31.6666 3.95832 31.6666H26.9167C27.3539 31.6666 27.7083 31.3121 27.7083 30.8749C27.7084 30.7877 27.6939 30.701 27.6656 30.6185Z" fill="#2196F3" />
    <path d="M15.0412 22.1667C14.7065 22.1667 14.4079 21.9562 14.2955 21.641L11.0829 12.6445L7.87034 21.641C7.70683 22.0465 7.24556 22.2427 6.84003 22.0792C6.45743 21.9249 6.25741 21.5027 6.38039 21.109L10.3387 10.0257C10.5323 9.61427 11.0229 9.4377 11.4343 9.63126C11.6076 9.71283 11.747 9.85229 11.8287 10.0257L15.787 21.109C15.9344 21.5195 15.722 21.9719 15.312 22.1207C15.225 22.1515 15.1334 22.167 15.0412 22.1667Z" fill="#FAFAFA" />
    <path d="M12.6669 17.4166H9.50019C9.06297 17.4166 8.7085 17.0622 8.7085 16.6249C8.7085 16.1877 9.06297 15.8333 9.50019 15.8333H12.6669C13.1041 15.8333 13.4586 16.1877 13.4586 16.6249C13.4585 17.0622 13.1041 17.4166 12.6669 17.4166Z" fill="#FAFAFA" />
</svg>