<svg width="56" height="56" viewBox="0 0 56 56" fill="none" xmlns="http://www.w3.org/2000/svg">
<g filter="url(#filter0_d_457_1674)">
<rect x="4" y="2" width="48" height="48" rx="24" fill="#0688DB" shape-rendering="crispEdges"/>
<path d="M28.825 15.5813L28.9625 15.6913L38.7938 25.1925L37.8312 26.1825L36.25 24.6563V33.9375C36.2527 34.1003 36.1975 34.2587 36.0942 34.3846C35.991 34.5105 35.8464 34.5957 35.6863 34.625H30.75V27.0625C30.7527 26.8997 30.6974 26.7413 30.5942 26.6154C30.491 26.4895 30.3464 26.4043 30.1862 26.375H25.9375C25.7747 26.3723 25.6163 26.4276 25.4904 26.5308C25.3645 26.634 25.2793 26.7786 25.25 26.9388V34.625H20.4375C20.2747 34.6277 20.1163 34.5725 19.9904 34.4692C19.8645 34.366 19.7793 34.2214 19.75 34.0613V24.6563L18.1687 26.1825L17.2062 25.1925L27.0375 15.6913C27.2732 15.4624 27.583 15.3255 27.9109 15.3053C28.2388 15.2852 28.563 15.383 28.825 15.5813Z" fill="white"/>
</g>
<defs>
<filter id="filter0_d_457_1674" x="0" y="0" width="56" height="56" filterUnits="userSpaceOnUse" color-interpolation-filters="sRGB">
<feFlood flood-opacity="0" result="BackgroundImageFix"/>
<feColorMatrix in="SourceAlpha" type="matrix" values="0 0 0 0 0 0 0 0 0 0 0 0 0 0 0 0 0 0 127 0" result="hardAlpha"/>
<feOffset dy="2"/>
<feGaussianBlur stdDeviation="2"/>
<feComposite in2="hardAlpha" operator="out"/>
<feColorMatrix type="matrix" values="0 0 0 0 0 0 0 0 0 0 0 0 0 0 0 0 0 0 0.18 0"/>
<feBlend mode="normal" in2="BackgroundImageFix" result="effect1_dropShadow_457_1674"/>
<feBlend mode="normal" in="SourceGraphic" in2="effect1_dropShadow_457_1674" result="shape"/>
</filter>
</defs>
</svg>
