<svg className='w-4 h-4' viewBox="0 0 22 21" fill="none" xmlns="http://www.w3.org/2000/svg">
    <path
        d="M20.9734 18.6875C19.688 16.4316 17.6809 14.6738 15.2752 13.6972C16.4716 12.7999 17.3553 11.549 17.8011 10.1216C18.247 8.69424 18.2325 7.16274 17.7596 5.74407C17.2867 4.3254 16.3794 3.09148 15.1663 2.21709C13.9531 1.34271 12.4956 0.872192 11.0002 0.872192C9.50481 0.872192 8.04731 1.34271 6.83416 2.21709C5.62102 3.09148 4.71375 4.3254 4.24086 5.74407C3.76797 7.16274 3.75343 8.69424 4.19932 10.1216C4.6452 11.549 5.52889 12.7999 6.72522 13.6972C4.31953 14.6738 2.31245 16.4316 1.0271 18.6875C0.947454 18.8156 0.894371 18.9583 0.871006 19.1073C0.847641 19.2563 0.85447 19.4085 0.891088 19.5548C0.927706 19.7011 0.993366 19.8385 1.08416 19.9589C1.17496 20.0794 1.28904 20.1803 1.41963 20.2557C1.55021 20.3312 1.69463 20.3796 1.8443 20.3981C1.99397 20.4166 2.14584 20.4049 2.29087 20.3635C2.4359 20.3222 2.57114 20.2521 2.68854 20.1574C2.80595 20.0628 2.90312 19.9455 2.97429 19.8125C4.67304 16.8763 7.67304 15.125 11.0002 15.125C14.3274 15.125 17.3274 16.8772 19.0262 19.8125C19.1804 20.0605 19.425 20.2388 19.7083 20.3097C19.9916 20.3806 20.2914 20.3386 20.5443 20.1925C20.7972 20.0464 20.9833 19.8077 21.0634 19.5268C21.1434 19.246 21.1112 18.945 20.9734 18.6875ZM6.12523 8C6.12523 7.03582 6.41114 6.09329 6.94681 5.2916C7.48248 4.48991 8.24385 3.86507 9.13464 3.49609C10.0254 3.12712 11.0056 3.03057 11.9513 3.21868C12.8969 3.40678 13.7656 3.87108 14.4474 4.55286C15.1292 5.23464 15.5935 6.10328 15.7816 7.04894C15.9697 7.9946 15.8731 8.9748 15.5041 9.86559C15.1352 10.7564 14.5103 11.5177 13.7086 12.0534C12.9069 12.5891 11.9644 12.875 11.0002 12.875C9.70775 12.8735 8.46864 12.3594 7.55472 11.4455C6.64081 10.5316 6.12671 9.29248 6.12523 8Z"
        fill="#808080" />
</svg>