<svg width="11" height="14" viewBox="0 0 11 14" fill="currentColor" xmlns="http://www.w3.org/2000/svg">
<path d="M1.65113 6.33307H9.34913C9.9238 6.33307 10.2291 5.65307 9.84713 5.22307L5.99847 0.893071C5.93604 0.822607 5.85937 0.766194 5.77352 0.727558C5.68767 0.688923 5.59461 0.668945 5.50047 0.668945C5.40633 0.668945 5.31326 0.688923 5.22741 0.727558C5.14156 0.766194 5.06489 0.822607 5.00247 0.893071L1.15247 5.22307C0.770467 5.65307 1.0758 6.33307 1.65113 6.33307ZM5.0018 13.1057C5.06423 13.1762 5.1409 13.2326 5.22675 13.2713C5.31259 13.3099 5.40566 13.3299 5.4998 13.3299C5.59394 13.3299 5.68701 13.3099 5.77285 13.2713C5.8587 13.2326 5.93537 13.1762 5.9978 13.1057L9.84647 8.77574C10.2291 8.3464 9.9238 7.6664 9.34847 7.6664H1.65113C1.07647 7.6664 0.771133 8.3464 1.15313 8.7764L5.0018 13.1057Z" fill="currentColor"/>
</svg>
