<svg width="18" height="16" viewBox="0 0 18 16" fill="none" xmlns="http://www.w3.org/2000/svg">
<path d="M4.15395 10.6116C5.73805 12.4324 7.64496 13.866 9.82144 14.8803C10.6501 15.2579 11.7583 15.7059 12.993 15.7827C13.0695 15.7859 13.1427 15.7891 13.2193 15.7891C14.0479 15.7891 14.7135 15.5139 15.256 14.9475C15.2593 14.9443 15.266 14.9379 15.2693 14.9315C15.4623 14.7075 15.6819 14.5059 15.9116 14.2916C16.068 14.1476 16.2277 13.9972 16.3808 13.8436C17.0897 13.1332 17.0897 12.2308 16.3742 11.5428L14.3741 9.61963C14.0346 9.28044 13.6286 9.10124 13.2026 9.10124C12.7767 9.10124 12.3673 9.28044 12.0179 9.61643L10.8265 10.762C10.7167 10.7012 10.6035 10.6468 10.497 10.5956C10.3639 10.5316 10.2408 10.4708 10.1309 10.4036C9.04602 9.74123 8.06095 8.87724 7.11915 7.76686C6.64325 7.18767 6.32377 6.70128 6.1008 6.20529C6.41362 5.93329 6.70648 5.6485 6.98936 5.3701C7.0892 5.27091 7.19236 5.17171 7.29553 5.07251C7.65494 4.72692 7.84797 4.32692 7.84797 3.92053C7.84797 3.51414 7.65827 3.11414 7.29553 2.76855L6.3038 1.81497C6.18732 1.70297 6.0775 1.59417 5.96435 1.48217C5.74471 1.26458 5.51508 1.04058 5.28878 0.838983C4.946 0.515788 4.54332 0.346191 4.11734 0.346191C3.69469 0.346191 3.28868 0.515788 2.93259 0.842183L1.68794 2.03896C1.23534 2.47415 0.979092 3.00215 0.925844 3.61333C0.862614 4.37812 1.00904 5.19091 1.38843 6.17329C1.97082 7.69326 2.8494 9.10444 4.15395 10.6116ZM1.73786 3.68053C1.7778 3.25494 1.94752 2.89975 2.26701 2.59255L3.505 1.40217C3.69802 1.22298 3.91101 1.13018 4.11734 1.13018C4.32035 1.13018 4.52668 1.22298 4.71637 1.40857C4.93934 1.60697 5.149 1.81497 5.3753 2.03576C5.48845 2.14776 5.60493 2.25976 5.72141 2.37496L6.71314 3.32854C6.91947 3.52694 7.02596 3.72853 7.02596 3.92693C7.02596 4.12533 6.91947 4.32692 6.71314 4.52532C6.60997 4.62452 6.5068 4.72692 6.40364 4.82611C6.09414 5.12691 5.80461 5.4117 5.48513 5.6837C5.47847 5.6901 5.47514 5.6933 5.46849 5.6997C5.19227 5.96529 5.23553 6.21809 5.30209 6.41009C5.30542 6.41969 5.30875 6.42609 5.31207 6.43569C5.56833 7.02768 5.92442 7.59087 6.48018 8.26285C7.47856 9.44683 8.53019 10.3652 9.68832 11.0724C9.83142 11.162 9.9845 11.2324 10.1276 11.3028C10.2607 11.3668 10.3839 11.4276 10.4937 11.4948C10.507 11.5012 10.517 11.5076 10.5303 11.514C10.6401 11.5684 10.7466 11.594 10.8531 11.594C11.1193 11.594 11.2924 11.4308 11.349 11.3764L12.5936 10.1796C12.7866 9.99402 12.9963 9.89483 13.2026 9.89483C13.4556 9.89483 13.6619 10.0452 13.7917 10.1796L15.7984 12.106C16.1978 12.49 16.1944 12.906 15.7884 13.3124C15.6487 13.4564 15.5022 13.594 15.3458 13.738C15.1129 13.9556 14.8699 14.1796 14.6503 14.4323C14.2676 14.8291 13.8116 15.0147 13.2226 15.0147C13.166 15.0147 13.1061 15.0115 13.0495 15.0083C11.958 14.9411 10.943 14.5315 10.1809 14.1828C8.11087 13.2196 6.29382 11.8532 4.78626 10.1188C3.54494 8.68205 2.70962 7.34447 2.15718 5.91089C1.81441 5.03091 1.68462 4.32372 1.73786 3.68053Z" fill="#737373" stroke="#737373" stroke-width="0.25"/>
</svg>
