<svg width="24" height="45" viewBox="0 0 24 45" fill="currentColor" xmlns="http://www.w3.org/2000/svg">
<path fill-rule="evenodd" clip-rule="evenodd" d="M23.4992 43.7723C23.3409 43.9301 23.1528 44.0553 22.9457 44.1408C22.7386 44.2262 22.5166 44.2702 22.2924 44.2702C22.0682 44.2702 21.8462 44.2262 21.6391 44.1408C21.432 44.0553 21.2439 43.9301 21.0856 43.7723L0.631046 23.4351C0.472307 23.2777 0.346367 23.0907 0.260435 22.8848C0.174505 22.6789 0.130272 22.4582 0.130272 22.2352C0.130272 22.0123 0.174505 21.7916 0.260435 21.5857C0.346367 21.3798 0.472307 21.1928 0.631046 21.0354L21.0856 0.6982C21.4057 0.379967 21.8398 0.201187 22.2924 0.201187C22.7451 0.201187 23.1792 0.379967 23.4992 0.6982C23.8193 1.01643 23.9991 1.44804 23.9991 1.89809C23.9991 2.34814 23.8193 2.77975 23.4992 3.09798L4.24809 22.2352L23.4992 41.3725C23.658 41.5299 23.7839 41.717 23.8698 41.9229C23.9558 42.1288 24 42.3495 24 42.5724C24 42.7953 23.9558 43.0161 23.8698 43.222C23.7839 43.4279 23.658 43.6149 23.4992 43.7723Z" fill="currentColor"/>
</svg>
