<?xml version="1.0" encoding="UTF-8"?>
<svg width="512" height="512" version="1.1" viewBox="0 0 32 32" xmlns="http://www.w3.org/2000/svg">
 <path d="m28 9v-4a3 3 0 0 0-3-3h-16a3 3 0 0 0-3 3v4a3 3 0 0 0-3 3v8.08a2.92 2.92 0 0 0 2.92 2.92h0.08v4a3 3 0 0 0 3 3h16a3 3 0 0 0 3-3v-4h0.08a2.92 2.92 0 0 0 2.92-2.92v-8.08a3 3 0 0 0-3-3zm-20-4a1 1 0 0 1 1-1h16a1 1 0 0 1 1 1v4h-18zm18 22a1 1 0 0 1-1 1h-16a1 1 0 0 1-1-1v-6h18zm3-6.92a0.92 0.92 0 0 1-0.92 0.92h-0.08v-1a1 1 0 0 0-1-1h-20a1 1 0 0 0-1 1v1h-0.08a0.92 0.92 0 0 1-0.92-0.92v-8.08a1 1 0 0 1 1-1h22a1 1 0 0 1 1 1zm-2-3.08a1 1 0 0 1-1 1h-1a1 1 0 0 1 0-2h1a1 1 0 0 1 1 1z"
fill="#22C55E"
 />
</svg>