<svg width="30" height="24" viewBox="0 0 30 24" fill="none" xmlns="http://www.w3.org/2000/svg">
<path d="M2.5 23.25H10C10.75 23.25 11.25 22.75 11.25 22C11.25 21.25 10.75 20.75 10 20.75H3.875C4.5 16.5 8.25 13.25 12.5 13.25C16 13.25 18.875 10.5 18.875 7C18.875 3.5 16.125 0.625 12.625 0.625C9.125 0.625 6.25 3.375 6.25 6.875C6.25 8.625 7 10.375 8.25 11.625C4 13.25 1.25 17.375 1.25 22C1.25 22.75 1.75 23.25 2.5 23.25ZM12.5 3.25C14.625 3.25 16.25 4.875 16.25 7C16.25 9.125 14.625 10.75 12.5 10.75C10.375 10.75 8.75 9.125 8.75 7C8.75 4.875 10.375 3.25 12.5 3.25ZM25.25 8.625C24.75 8.125 24 8.125 23.5 8.625L15.625 16.5C15.25 16.875 15.375 16.875 13.75 21.625C13.375 22.625 14.375 23.5 15.375 23.25C20.125 21.625 20.125 21.75 20.5 21.375L28.375 13.5C28.875 13 28.875 12.25 28.375 11.75L25.25 8.625ZM19 19.375L17 20L17.625 18L24.375 11.25L25.75 12.625L19 19.375Z" fill="currentColor" stroke="white"/>
</svg>
