<svg width="21" height="22" viewBox="0 0 21 22" fill="currentColor" xmlns="http://www.w3.org/2000/svg">
<mask id="path-1-inside-1_145_1576" fill="white">
<path d="M12.4922 0.9375C12.6444 0.937505 12.7926 0.985806 12.9156 1.07545C13.0385 1.16509 13.1299 1.29144 13.1764 1.43631L13.9671 3.893C14.2991 4.05544 14.6168 4.238 14.9201 4.44356L17.4444 3.90019C17.5932 3.86841 17.7483 3.8847 17.8873 3.9467C18.0263 4.0087 18.142 4.11321 18.2178 4.24519L20.2101 7.69375C20.2862 7.82565 20.3184 7.9783 20.3022 8.1297C20.2859 8.2811 20.2219 8.42341 20.1196 8.53612L18.3874 10.448C18.4126 10.8146 18.4126 11.1825 18.3874 11.5491L20.1196 13.4639C20.2219 13.5766 20.2859 13.7189 20.3022 13.8703C20.3184 14.0217 20.2862 14.1744 20.2101 14.3063L18.2178 17.7563C18.1418 17.888 18.026 17.9922 17.887 18.0539C17.748 18.1156 17.5931 18.1317 17.4444 18.0998L14.9201 17.5564C14.6183 17.7606 14.2991 17.9446 13.9685 18.107L13.1764 20.5637C13.1299 20.7086 13.0385 20.8349 12.9156 20.9246C12.7926 21.0142 12.6444 21.0625 12.4922 21.0625H8.50744C8.35527 21.0625 8.20703 21.0142 8.08407 20.9246C7.9611 20.8349 7.86976 20.7086 7.82319 20.5637L7.03401 18.1084C6.70284 17.9465 6.38341 17.7616 6.07807 17.555L3.55526 18.0998C3.40643 18.1316 3.25135 18.1153 3.11237 18.0533C2.97338 17.9913 2.85766 17.8868 2.78188 17.7548L0.789507 14.3063C0.713427 14.1744 0.681202 14.0217 0.697478 13.8703C0.713755 13.7189 0.777691 13.5766 0.88007 13.4639L2.61226 11.5491C2.58717 11.1835 2.58717 10.8165 2.61226 10.4509L0.88007 8.53612C0.777691 8.42341 0.713755 8.2811 0.697478 8.1297C0.681202 7.9783 0.713427 7.82565 0.789507 7.69375L2.78188 4.24375C2.85787 4.11204 2.97368 4.00782 3.11265 3.94609C3.25161 3.88435 3.40658 3.86828 3.55526 3.90019L6.07807 4.445C6.38282 4.23944 6.70195 4.054 7.03401 3.89156L7.82463 1.43631C7.87105 1.29191 7.96195 1.16589 8.08434 1.07629C8.20673 0.986693 8.35433 0.938112 8.50601 0.9375H12.4908H12.4922ZM11.9661 2.375H9.03357L8.21707 4.91506L7.66651 5.18388C7.39585 5.31632 7.13457 5.46713 6.88451 5.63525L6.37563 5.98025L3.76513 5.41675L2.29888 7.95825L4.08857 9.93913L4.04544 10.5486C4.02479 10.8492 4.02479 11.1508 4.04544 11.4514L4.08857 12.0609L2.29601 14.0417L3.76369 16.5833L6.3742 16.0212L6.88307 16.3648C7.13314 16.5329 7.39441 16.6837 7.66507 16.8161L8.21563 17.0849L9.03357 19.625H11.9689L12.7883 17.0835L13.3374 16.8161C13.6078 16.684 13.8686 16.5332 14.118 16.3648L14.6254 16.0212L17.2374 16.5833L18.7036 14.0417L16.9125 12.0609L16.9556 11.4514C16.9764 11.1503 16.9764 10.8482 16.9556 10.5472L16.9125 9.93769L18.7051 7.95825L17.2374 5.41675L14.6254 5.97738L14.118 5.63525C13.8687 5.4668 13.6078 5.31597 13.3374 5.18388L12.7883 4.9165L11.9675 2.375H11.9661ZM10.4998 6.6875C11.6436 6.6875 12.7405 7.14185 13.5492 7.9506C14.358 8.75935 14.8123 9.85625 14.8123 11C14.8123 12.1437 14.358 13.2406 13.5492 14.0494C12.7405 14.8581 11.6436 15.3125 10.4998 15.3125C9.35607 15.3125 8.25917 14.8581 7.45042 14.0494C6.64167 13.2406 6.18732 12.1437 6.18732 11C6.18732 9.85625 6.64167 8.75935 7.45042 7.9506C8.25917 7.14185 9.35607 6.6875 10.4998 6.6875ZM10.4998 8.125C9.73732 8.125 9.00605 8.4279 8.46689 8.96707C7.92772 9.50624 7.62482 10.2375 7.62482 11C7.62482 11.7625 7.92772 12.4938 8.46689 13.0329C9.00605 13.5721 9.73732 13.875 10.4998 13.875C11.2623 13.875 11.9936 13.5721 12.5328 13.0329C13.0719 12.4938 13.3748 11.7625 13.3748 11C13.3748 10.2375 13.0719 9.50624 12.5328 8.96707C11.9936 8.4279 11.2623 8.125 10.4998 8.125Z"/>
</mask>
<path d="M12.4922 0.9375C12.6444 0.937505 12.7926 0.985806 12.9156 1.07545C13.0385 1.16509 13.1299 1.29144 13.1764 1.43631L13.9671 3.893C14.2991 4.05544 14.6168 4.238 14.9201 4.44356L17.4444 3.90019C17.5932 3.86841 17.7483 3.8847 17.8873 3.9467C18.0263 4.0087 18.142 4.11321 18.2178 4.24519L20.2101 7.69375C20.2862 7.82565 20.3184 7.9783 20.3022 8.1297C20.2859 8.2811 20.2219 8.42341 20.1196 8.53612L18.3874 10.448C18.4126 10.8146 18.4126 11.1825 18.3874 11.5491L20.1196 13.4639C20.2219 13.5766 20.2859 13.7189 20.3022 13.8703C20.3184 14.0217 20.2862 14.1744 20.2101 14.3063L18.2178 17.7563C18.1418 17.888 18.026 17.9922 17.887 18.0539C17.748 18.1156 17.5931 18.1317 17.4444 18.0998L14.9201 17.5564C14.6183 17.7606 14.2991 17.9446 13.9685 18.107L13.1764 20.5637C13.1299 20.7086 13.0385 20.8349 12.9156 20.9246C12.7926 21.0142 12.6444 21.0625 12.4922 21.0625H8.50744C8.35527 21.0625 8.20703 21.0142 8.08407 20.9246C7.9611 20.8349 7.86976 20.7086 7.82319 20.5637L7.03401 18.1084C6.70284 17.9465 6.38341 17.7616 6.07807 17.555L3.55526 18.0998C3.40643 18.1316 3.25135 18.1153 3.11237 18.0533C2.97338 17.9913 2.85766 17.8868 2.78188 17.7548L0.789507 14.3063C0.713427 14.1744 0.681202 14.0217 0.697478 13.8703C0.713755 13.7189 0.777691 13.5766 0.88007 13.4639L2.61226 11.5491C2.58717 11.1835 2.58717 10.8165 2.61226 10.4509L0.88007 8.53612C0.777691 8.42341 0.713755 8.2811 0.697478 8.1297C0.681202 7.9783 0.713427 7.82565 0.789507 7.69375L2.78188 4.24375C2.85787 4.11204 2.97368 4.00782 3.11265 3.94609C3.25161 3.88435 3.40658 3.86828 3.55526 3.90019L6.07807 4.445C6.38282 4.23944 6.70195 4.054 7.03401 3.89156L7.82463 1.43631C7.87105 1.29191 7.96195 1.16589 8.08434 1.07629C8.20673 0.986693 8.35433 0.938112 8.50601 0.9375H12.4908H12.4922ZM11.9661 2.375H9.03357L8.21707 4.91506L7.66651 5.18388C7.39585 5.31632 7.13457 5.46713 6.88451 5.63525L6.37563 5.98025L3.76513 5.41675L2.29888 7.95825L4.08857 9.93913L4.04544 10.5486C4.02479 10.8492 4.02479 11.1508 4.04544 11.4514L4.08857 12.0609L2.29601 14.0417L3.76369 16.5833L6.3742 16.0212L6.88307 16.3648C7.13314 16.5329 7.39441 16.6837 7.66507 16.8161L8.21563 17.0849L9.03357 19.625H11.9689L12.7883 17.0835L13.3374 16.8161C13.6078 16.684 13.8686 16.5332 14.118 16.3648L14.6254 16.0212L17.2374 16.5833L18.7036 14.0417L16.9125 12.0609L16.9556 11.4514C16.9764 11.1503 16.9764 10.8482 16.9556 10.5472L16.9125 9.93769L18.7051 7.95825L17.2374 5.41675L14.6254 5.97738L14.118 5.63525C13.8687 5.4668 13.6078 5.31597 13.3374 5.18388L12.7883 4.9165L11.9675 2.375H11.9661ZM10.4998 6.6875C11.6436 6.6875 12.7405 7.14185 13.5492 7.9506C14.358 8.75935 14.8123 9.85625 14.8123 11C14.8123 12.1437 14.358 13.2406 13.5492 14.0494C12.7405 14.8581 11.6436 15.3125 10.4998 15.3125C9.35607 15.3125 8.25917 14.8581 7.45042 14.0494C6.64167 13.2406 6.18732 12.1437 6.18732 11C6.18732 9.85625 6.64167 8.75935 7.45042 7.9506C8.25917 7.14185 9.35607 6.6875 10.4998 6.6875ZM10.4998 8.125C9.73732 8.125 9.00605 8.4279 8.46689 8.96707C7.92772 9.50624 7.62482 10.2375 7.62482 11C7.62482 11.7625 7.92772 12.4938 8.46689 13.0329C9.00605 13.5721 9.73732 13.875 10.4998 13.875C11.2623 13.875 11.9936 13.5721 12.5328 13.0329C13.0719 12.4938 13.3748 11.7625 13.3748 11C13.3748 10.2375 13.0719 9.50624 12.5328 8.96707C11.9936 8.4279 11.2623 8.125 10.4998 8.125Z" fill="currentColor" stroke="currentColor" stroke-width="2" mask="url(#path-1-inside-1_145_1576)"/>
</svg>
