<svg width="60" height="61" viewBox="0 0 60 61" fill="none" xmlns="http://www.w3.org/2000/svg">
<ellipse cx="30" cy="30.4494" rx="30" ry="30.4494" fill="#0C9D61"/>
<path d="M26 36.0929L21.3734 31.3969C21.1241 31.1439 20.7859 31.0017 20.4334 31.0017C20.0808 31.0017 19.7427 31.1439 19.4934 31.3969C19.2441 31.65 19.104 31.9932 19.104 32.351C19.104 32.5282 19.1384 32.7037 19.2052 32.8674C19.272 33.0311 19.3699 33.1798 19.4934 33.3051L25.0667 38.9619C25.5867 39.4897 26.4267 39.4897 26.9467 38.9619L41.0534 24.6439C41.3027 24.3909 41.4427 24.0477 41.4427 23.6899C41.4427 23.332 41.3027 22.9888 41.0534 22.7358C40.8041 22.4827 40.4659 22.3406 40.1134 22.3406C39.7608 22.3406 39.4227 22.4827 39.1734 22.7358L26 36.0929Z" fill="white"/>
</svg>
