<svg width="66" height="54" viewBox="0 0 66 54" fill="none" xmlns="http://www.w3.org/2000/svg">
<path d="M33.6111 12.8337C33.4715 13.2623 33.7424 13.6956 34.1813 13.8155L34.268 13.8392L34.2718 13.8352C34.6816 13.903 35.1 13.6809 35.2268 13.2888C36.334 9.88165 39.8285 7.48942 43.7353 7.48942C44.1888 7.48942 44.5795 7.14966 44.5795 6.70364C44.5795 6.25761 44.1887 5.91787 43.7353 5.91787C38.9457 5.91787 34.9092 8.83894 33.6111 12.8337ZM33.6111 12.8337L33.7537 12.8802M33.6111 12.8337C33.6111 12.8337 33.6111 12.8338 33.6111 12.8338L33.7537 12.8802M33.7537 12.8802C33.6441 13.2167 33.8534 13.5704 34.2208 13.6708L33.7537 12.8802Z" fill="currentColor" stroke="#F6F6F6" stroke-width="0.3"/>
<path d="M53.4534 37.8564H49.2883C48.905 37.8564 48.5941 37.5716 48.5941 37.2206C48.5941 36.8696 48.905 36.5848 49.2883 36.5848H53.4534C59.1949 36.5848 63.8663 32.3065 63.8663 27.0483C63.8663 21.7901 59.1949 17.5119 53.4534 17.5119H53.3533C53.152 17.5119 52.9605 17.4319 52.8287 17.2925C52.6968 17.1531 52.6373 16.9683 52.666 16.7857C52.728 16.3897 52.7592 15.9919 52.7592 15.6046C52.7592 11.0475 48.7105 7.33957 43.7347 7.33957C41.7989 7.33957 39.9528 7.89359 38.3957 8.94214C38.0536 9.17238 37.5677 9.07021 37.3698 8.72552C32.9602 1.03551 21.4428 0.00282234 15.4716 6.69246C12.9562 9.51071 11.9679 13.1768 12.7599 16.7499C12.8471 17.1445 12.5174 17.5123 12.0795 17.5123H11.8014C6.05993 17.5123 1.38846 21.7906 1.38846 27.0488C1.38846 32.307 6.05993 36.5853 11.8014 36.5853H15.9665C16.3498 36.5853 16.6607 36.87 16.6607 37.2211C16.6607 37.5721 16.3498 37.8569 15.9665 37.8569H11.8014C5.29423 37.8569 0 33.0082 0 27.0488C0 21.2565 5.00113 16.5137 11.2564 16.2521C10.6688 12.5451 11.7924 8.80588 14.3966 5.88777C20.7896 -1.27502 33.0414 -0.472171 38.2205 7.51487C39.8727 6.56621 41.7633 6.06855 43.7344 6.06855C49.763 6.06855 54.5401 10.7678 54.1221 16.258C60.3197 16.5764 65.2545 21.2942 65.2545 27.0483C65.2545 33.0082 59.9602 37.8564 53.4531 37.8564L53.4534 37.8564Z" fill="currentColor"/>
<path d="M15.0292 36.8616C15.0292 45.7208 22.8946 52.906 32.5343 52.906C42.1741 52.906 50.0393 45.7207 50.0393 36.8616C50.0393 28.0024 42.1741 20.8173 32.5343 20.8173C22.8944 20.8173 15.0292 28.0025 15.0292 36.8616ZM16.7179 36.8616C16.7179 28.8939 23.8006 22.3891 32.5343 22.3891C41.2678 22.3891 48.3506 28.8938 48.3506 36.8616C48.3506 44.8294 41.2678 51.3341 32.5343 51.3341C23.8007 51.3341 16.7179 44.8295 16.7179 36.8616Z" fill="currentColor" stroke="#F6F6F6" stroke-width="0.3"/>
<path d="M32.1933 43.2601C32.1933 43.6121 32.5007 43.8755 32.8515 43.8755C33.2022 43.8755 33.5097 43.6125 33.5097 43.2601V31.1582C33.5097 30.8062 33.2023 30.5427 32.8515 30.5427C32.5007 30.5427 32.1933 30.8062 32.1933 31.1582V43.2601Z" fill="currentColor" stroke="currentColor" stroke-width="0.3"/>
<path d="M32.3907 30.7197C32.6463 30.4852 33.0563 30.4853 33.3122 30.7196L37.378 34.4432C37.6414 34.6845 37.6414 35.0813 37.3781 35.3226C37.2487 35.4415 37.0812 35.4984 36.9173 35.4984L32.3907 30.7197ZM32.3907 30.7197C32.3907 30.7197 32.3907 30.7197 32.3907 30.7197L32.3907 30.7197ZM36.4566 35.3227C36.5857 35.441 36.7531 35.4984 36.9173 35.4984L29.145 35.2121L29.2464 35.3227L29.2465 35.3226L32.8515 32.021L36.4566 35.3227Z" fill="currentColor" stroke="currentColor" stroke-width="0.3"/>
</svg>