<svg width="30" height="30" viewBox="0 0 41 32" fill="none" xmlns="http://www.w3.org/2000/svg">
<path d="M33.8272 10.7034C31.9785 3.33871 24.5097 -1.13283 17.1451 0.71587C11.3898 2.16063 7.21076 7.13485 6.78018 13.053C2.69368 13.7269 -0.0728177 17.586 0.601093 21.6725C1.20017 25.3054 4.3481 27.966 8.03005 27.9514H14.2794V25.4517H8.03005C5.26894 25.4517 3.03059 23.2133 3.03059 20.4522C3.03059 17.6911 5.26894 15.4528 8.03005 15.4528C8.72036 15.4528 9.27991 14.8932 9.27991 14.2029C9.27366 7.99039 14.3049 2.94906 20.5174 2.94289C25.8953 2.9375 30.5247 6.73943 31.565 12.0156C31.6677 12.5425 32.0952 12.9449 32.6274 13.0155C36.0443 13.5021 38.4198 16.6665 37.9333 20.0834C37.4964 23.1517 34.8766 25.4362 31.7774 25.4517H26.778V27.9514H31.7774C36.6094 27.9368 40.5146 24.0079 40.4999 19.1759C40.4877 15.1537 37.7346 11.6579 33.8272 10.7034Z" fill="currentColor"/>
<path d="M19.6411 15.8153L14.6416 20.8148L16.4039 22.5771L19.2786 19.7149V31.7011H21.7783V19.7149L24.6405 22.5771L26.4028 20.8148L21.4034 15.8153C20.9158 15.3307 20.1286 15.3307 19.6411 15.8153Z" fill="currentColor"/>
</svg>
