<svg width="20" height="20" viewBox="0 0 20 20" fill="currentColor" xmlns="http://www.w3.org/2000/svg">
<mask id="mask0_191_2365" style="mask-type:luminance" maskUnits="userSpaceOnUse" x="3" y="11" width="14" height="7">
<path fill-rule="evenodd" clip-rule="evenodd" d="M3.85742 11.9501H16.3031V17.711H3.85742V11.9501Z" fill="white"/>
</mask>
<g mask="url(#mask0_191_2365)">
<path fill-rule="evenodd" clip-rule="evenodd" d="M10.0811 13.1219C6.73314 13.1219 5.03599 13.6938 5.03599 14.8227C5.03599 15.9618 6.73314 16.5391 10.0811 16.5391C13.4282 16.5391 15.1246 15.9673 15.1246 14.8384C15.1246 13.6993 13.4282 13.1219 10.0811 13.1219ZM10.0811 17.711C8.54185 17.711 3.85742 17.711 3.85742 14.8227C3.85742 12.2477 7.40964 11.9501 10.0811 11.9501C11.6203 11.9501 16.3031 11.9501 16.3031 14.8384C16.3031 17.4134 12.7517 17.711 10.0811 17.711Z" fill="currentColor"/>
</g>
<mask id="mask1_191_2365" style="mask-type:luminance" maskUnits="userSpaceOnUse" x="5" y="2" width="10" height="9">
<path fill-rule="evenodd" clip-rule="evenodd" d="M5.9082 2.18762H14.2525V10.4834H5.9082V2.18762Z" fill="white"/>
</mask>
<g mask="url(#mask1_191_2365)">
<path fill-rule="evenodd" clip-rule="evenodd" d="M10.0812 3.30288C8.39895 3.30288 7.03024 4.66304 7.03024 6.33569C7.02474 8.00288 8.38324 9.36226 10.0584 9.36851L10.0812 9.92632V9.36851C11.7626 9.36851 13.1305 8.00757 13.1305 6.33569C13.1305 4.66304 11.7626 3.30288 10.0812 3.30288ZM10.0812 10.4833H10.056C7.76016 10.4763 5.90037 8.6146 5.90823 6.33335C5.90823 4.04819 7.7798 2.18726 10.0812 2.18726C12.3817 2.18726 14.2525 4.04819 14.2525 6.33569C14.2525 8.62319 12.3817 10.4833 10.0812 10.4833Z" fill="currentColor"/>
</g>
</svg>
