<svg width="452" height="466" viewBox="0 0 452 466" fill="none" xmlns="http://www.w3.org/2000/svg">
<path d="M451.7 240.1C451.7 272.4 444.9 303.1 432.7 330.9C398.7 408.2 322.6 462.8 233.5 465.7C232.3 465.767 231.1 465.8 229.9 465.8C228.567 465.867 227.233 465.9 225.9 465.9C224.567 465.9 223.233 465.867 221.9 465.8C220.7 465.8 219.5 465.767 218.3 465.7C129.2 462.8 53.1001 408.2 19.1001 330.9C6.9001 303.1 0.100098 272.4 0.100098 240.1C0.100098 149 54 70.5003 131.7 34.8003C160.3 21.6003 192.3 14.2002 225.9 14.2002C259 14.2002 290.4 21.4002 318.8 34.2002C397.2 69.6002 451.7 148.4 451.7 240.1Z" fill="#F4F4F4"/>
<path d="M429.1 242.9C429.1 272 423 299.6 412 324.7C381.4 394.2 313 443.3 232.8 446C231.667 446.067 230.567 446.1 229.5 446.1C228.3 446.1 227.1 446.1 225.9 446.1C224.7 446.1 223.5 446.1 222.3 446.1C221.233 446.1 220.133 446.067 219 446C138.8 443.3 70.4 394.2 39.8 324.7C28.8 299.7 22.7 272 22.7 242.9C22.7 160.9 71.2001 90.3002 141.1 58.2002C166.9 46.3002 195.6 39.7002 225.9 39.7002C255.7 39.7002 284 46.1002 309.5 57.6002C380 89.5002 429.1 160.4 429.1 242.9Z" fill="#DFDFDF"/>
<path d="M274.2 276.5C272.933 277.566 271.6 278.566 270.2 279.5C257.7 288.3 242.4 293.5 225.9 293.5C209.5 293.5 194.2 288.3 181.6 279.5C180.2 278.5 178.833 277.466 177.5 276.4V233.3C185.5 233.8 193.4 237.8 200.3 242.3C209.2 248.1 217.9 255 228.4 257.1C239 259.2 251.1 256.5 259.8 263C262.4 265 264.4 267.7 266.7 270.1C268.9 272.5 271.5 274.7 274.2 276.5Z" fill="#D1D4D9"/>
<path d="M274.4 228V276.7C274.333 276.633 274.267 276.567 274.2 276.5C271.5 274.7 268.9 272.5 266.7 270.1C264.4 267.7 262.4 265 259.8 263C251.1 256.5 239 259.2 228.4 257.1C217.9 255 209.2 248.1 200.3 242.3C193.4 237.8 185.5 233.8 177.5 233.3V228H274.4Z" fill="#D1D4D9"/>
<path d="M151.5 174.9V124.6C145.1 124.6 139.8 129.8 139.8 136.3V163.3C139.8 169.7 145.1 174.9 151.5 174.9Z" fill="#D1D4D9"/>
<path d="M299.6 174.9V124.6C306 124.6 311.2 129.8 311.2 136.3V163.3C311.2 169.7 306 174.9 299.6 174.9Z" fill="#D1D4D9"/>
<path d="M213.1 95.9998C189.4 97.0998 166.5 88.9998 147.3 79.7998V167.6C147.3 194.2 160.6 217.7 180.9 231.8C193.5 240.7 208.9 245.8 225.5 245.8C242.1 245.8 257.5 240.7 270.2 231.8C280.4 224.7 288.9 215.2 294.7 204.1C286.9 182.9 289.8 157.8 283 133.6C274.9 104.4 245.4 94.6998 213.1 95.9998Z" fill="#F4F4F4"/>
<path d="M303.8 61.0996H147.3V79.7997C166.5 88.9997 189.4 97.0996 213.1 95.9996C245.4 94.6996 274.9 104.4 283 133.6C289.8 157.8 286.9 182.9 294.7 204.1C300.5 193.2 303.8 180.8 303.8 167.6V61.0996Z" fill="#D1D4D9"/>
<path d="M168.7 78.4C168.7 78.4 173.5 87.0999 194.6 89.0999C214.6 90.9999 272.9 70.6999 287 97.6999C309.4 140.6 297.6 153.1 304.8 153.5C310.4 153.9 308.9 106 308.9 106L315.1 103.5C315.1 103.5 319.7 79.0999 311.2 55.0999C303.5 33.4999 284.3 22.9999 284.3 22.9999L294.6 15.8C294.6 15.8 208.8 -17.2 165.3 13.9C141.3 31.1 139.6 57.2999 136.2 73.6999C133.4 87.0999 135.5 106 135.5 106L142.1 101.3C142.1 101.3 138.3 152.4 145.9 153.5C148.6 153.9 148.1 137.7 148.6 131.5C152.6 80.7999 168.7 78.4 168.7 78.4Z" fill="#797C80"/>
<path d="M232.2 277.7L220.9 278.4L222.3 295.2L222 302.2H231.8L232.2 277.7Z" fill="#797C80"/>
<path d="M231.8 302.2L231.7 310.7L229.8 428.2L229.6 440.2L229.5 445.3C228.3 445.3 227.1 445.3 225.9 445.3C224.7 445.3 223.5 445.3 222.3 445.3L221.6 439.9L219.3 420.8L218 410L222 302.2H231.8Z" fill="#797C80"/>
<path d="M232.9 273.2H229.5V302.2H230.2V302.1L239.7 293.6L240.1 293.3L246.9 287.2L232.9 273.2Z" fill="#797C80"/>
<path d="M285.2 261.5C284.533 260.833 284.033 260.2 283.7 259.6C283.433 259.133 283.1 258.566 282.7 257.9C280.2 253.6 275.4 244.7 274.4 239.1L229.5 272.1V279.3L239.7 293.6L243 298.3L253 312.5L280.7 264.5L278.3 272.5L285.2 261.5Z" fill="#F3F3F3"/>
<path d="M413.9 322.7C383 392.9 313.8 442.5 232.8 445.2L244.6 430.2L311.6 345.1L293.9 316.7L311.6 311.8L294.5 268.1C309.7 276.6 338.6 287 372.1 299.3C389.5 305.7 403.6 307.6 413.9 322.7Z" fill="#64686B"/>
<path d="M244.9 389.4L244.3 385.7L241.4 395.5L235.7 334.6L230.2 302.2H229.5V440.2H229.8L248.2 424.1L244.9 389.4Z" fill="#797C80"/>
<path d="M280.7 264.5L278.3 272.5L244.3 385.7L241.4 395.5L235.7 334.6L230.2 302.2V302.1L239.7 293.6L243 298.3L253 312.5L280.7 264.5Z" fill="#F4F4F4"/>
<path d="M218.9 273.2H222.3V302.2H221.6V302.1L212.1 293.6L211.7 293.3L204.9 287.2L218.9 273.2Z" fill="#797C80"/>
<path d="M166.6 261.5C167.267 260.833 167.767 260.2 168.1 259.6C168.367 259.133 168.7 258.566 169.1 257.9C171.6 253.6 176.5 244.7 177.5 239.1L222.3 272.1V279.3L212.1 293.6L208.8 298.3L198.8 312.5L171.1 264.5L173.5 272.5L166.6 261.5Z" fill="#F3F3F3"/>
<path d="M219 445.2C137.9 442.5 68.7999 392.9 37.8999 322.7C48.1999 307.6 62.3 305.7 79.7 299.3C113.2 287 142.1 276.6 157.3 268.1L140.2 311.8L157.9 316.7L140.2 345.1L207.2 430.2L219 445.2Z" fill="#64686B"/>
<path d="M206.8 389.4L207.5 385.7L210.4 395.5L216.1 334.6L221.6 302.2H222.3V440.2H222L203.6 424.1L206.8 389.4Z" fill="#797C80"/>
<path d="M171.1 264.5L173.5 272.5L207.5 385.7L210.4 395.5L216.1 334.6L221.6 302.2V302.1L212.1 293.6L208.8 298.3L198.8 312.5L171.1 264.5Z" fill="#F4F4F4"/>
<path d="M229.5 272.1H222.3V279.3H229.5V272.1Z" fill="#F3F3F3"/>
<path d="M293.9 316.7L311.6 345.1L244.6 430.2L232.8 445.2C231.733 445.267 230.633 445.3 229.5 445.3C228.3 445.3 227.1 445.3 225.9 445.3C224.7 445.3 223.5 445.3 222.3 445.3C221.167 445.3 220.067 445.267 219 445.2L207.2 430.2L140.2 345.1L157.9 316.7L140.2 311.8L157.3 268.1C161.5 265.8 164.6 263.6 166.6 261.5C167.267 260.834 167.767 260.2 168.1 259.6C168.367 259.134 168.7 258.567 169.1 257.9L169.7 259.7L171.1 264.5L173.5 272.5L207.5 385.7L210.4 395.5L219.3 420.8L222.3 429.2L224.3 435L225.8 438.7L227.4 435L229.5 428.9L229.8 428.2L241.4 395.5L244.3 385.7L278.3 272.5L280.7 264.5L282.1 259.7L282.7 257.9C283.1 258.567 283.433 259.134 283.7 259.6C284.033 260.2 284.533 260.834 285.2 261.5C287.2 263.6 290.3 265.8 294.5 268.1L311.6 311.8L293.9 316.7Z" fill="#797C80"/>
</svg>
