<svg width="16" height="16" viewBox="0 0 16 16" fill="currentColor" xmlns="http://www.w3.org/2000/svg">
<path d="M1.09731 15.65C0.949531 15.65 0.805065 15.6062 0.682185 15.5241C0.559304 15.442 0.463529 15.3253 0.406973 15.1888C0.350418 15.0523 0.335623 14.902 0.36446 14.7571C0.393298 14.6122 0.464472 14.479 0.568979 14.3746L14.3748 0.568694C14.515 0.428573 14.705 0.349854 14.9032 0.349854C15.1013 0.349854 15.2914 0.428573 15.4315 0.568694C15.5716 0.708816 15.6503 0.898861 15.6503 1.09702C15.6503 1.29518 15.5716 1.48523 15.4315 1.62535L1.62564 15.4312C1.55632 15.5007 1.47396 15.5558 1.38329 15.5933C1.29263 15.6308 1.19544 15.6501 1.09731 15.65Z" fill="currentColor"/>
<path d="M14.9031 15.65C14.805 15.6501 14.7078 15.6308 14.6171 15.5933C14.5265 15.5558 14.4441 15.5007 14.3748 15.4312L0.568938 1.62535C0.428817 1.48523 0.350098 1.29518 0.350098 1.09702C0.350098 0.898861 0.428817 0.708816 0.568938 0.568694C0.70906 0.428573 0.899105 0.349854 1.09727 0.349854C1.29543 0.349854 1.48547 0.428573 1.62559 0.568694L15.4315 14.3746C15.536 14.479 15.6071 14.6122 15.636 14.7571C15.6648 14.902 15.65 15.0523 15.5935 15.1888C15.5369 15.3253 15.4411 15.442 15.3182 15.5241C15.1954 15.6062 15.0509 15.65 14.9031 15.65Z" fill="currentColor"/>
</svg>
